<?xml version="1.0" encoding="UTF-8"?><svg id="Layer_2" xmlns="http://www.w3.org/2000/svg" xmlns:xlink="http://www.w3.org/1999/xlink" viewBox="0 0 1304 650"><defs><style>.cls-1{fill:none;}.cls-2{fill:url(#linear-gradient);}.cls-3{clip-path:url(#clippath);}.cls-4{opacity:.11;}.cls-5{fill:#fff;}.cls-6{opacity:.51;}</style><linearGradient id="linear-gradient" x1="222.58" y1="-186.77" x2="1081.42" y2="836.77" gradientUnits="userSpaceOnUse"><stop offset="0" stop-color="#3c44ea"/><stop offset="1" stop-color="#00a6f1"/></linearGradient><clipPath id="clippath"><rect class="cls-1" width="1304" height="650"/></clipPath></defs><g id="Layer_3"><g><rect class="cls-2" width="1304" height="650"/><g class="cls-6"><g class="cls-3"><g class="cls-4"><path class="cls-5" d="m169.5,49.67c3.54-20.48,4.47-43.72,4.07-47.11-.4-3.4-1.53-11.49-1.38-15.13.15-3.66-2.38-13.01-1.52-17.98.86-4.97-.54-7.98-4.14-6.02-3.59,1.95-18.64,10.58-22.67,10.48-4.03-.11-28.69,4.68-31.16,8.21-2.45,3.54-6.77,4.23-8.4,5-1.63.76-14.29,8.54-15.75,10.81-1.45,2.27-10.65,8.7-13.23,11.1-2.59,2.41-29.44,31.15-9.09,74.66,0,0-15.78-2.55-14.69,11.66.39,5.1.71,8.93.95,11.78.01.12.38,3.97,2.57,6.63l16-21.45c-.69-.97-1.46-2.62-1.96-3.78.09-.16.2-.3.31-.43,1.28.93,3.48,1.9,3.48,1.9,0,0,28.84-32.99,29.68-35.42.58-1.7-5.41-14.61-9.08-22.24.35-.57.85-.7,1.41-.57,3.83,5.85,8.49,14.89,10.2,18.29.32.63,1.18.72,1.61.16,2.79-3.56,10.9-14.04,12.14-17.03,1.03-2.48-3.41-10.74-6.28-15.65.34-.23.75-.34,1.26-.21,2.91,3.27,5.75,7.19,7.53,9.77.94,1.37,2.92,1.44,3.98.17l20.8-24.96c.88-.28,1.45-.07,1.33,1.05-6.27,8.66-12.92,17.83-16.54,22.83-1.15,1.59-.16,3.81,1.78,4.07,2.58.35,4.47.95,5.99,1.55.01.18-.02.34-.1.49-6.2-.73-13.2,1.2-13.2,1.2,0,0-15.31,16.87-13.09,16.91,1.32.03,3.79,1.62,10.88,3.52,1.38.27,4.35,1.37,6.93,2.36-.03.16-.11.34-.25.52-1.6-.44-3.35-.93-4.88-1.34-8.09-1.56-15.15-.41-15.15-.41,0,0-34.33,33.9-34.56,36.8-.23,2.9,6.09,5.16,3.15,4.55-2.95-.62-5.2-1.98-5.2-1.98l-16.07,21.06c1.51.79,3.48,1.06,6.1.26,3.31-1.09,7.22-2.43,9.38-3.36,4.19-1.82,13.11-4.02,12.67-7.8-.44-3.76-1.21-5.39-1.21-5.39,0,0,22.99.38,28.59-2.38,5.59-2.75,5.52-1.79,8.87-2.56,3.35-.77,20.35-7.53,21.97-10.02,1.62-2.48,6.46-6.87,7.97-7.05,1.5-.18,14.47-7.04,18.01-27.52Z"/><path class="cls-5" d="m353.48,49.67c3.54-20.48,4.47-43.72,4.07-47.11-.4-3.4-1.53-11.49-1.38-15.13.15-3.66-2.38-13.01-1.52-17.98.86-4.97-.54-7.98-4.14-6.02-3.59,1.95-18.64,10.58-22.67,10.48-4.03-.11-28.69,4.68-31.16,8.21-2.45,3.54-6.77,4.23-8.4,5-1.63.76-14.29,8.54-15.75,10.81-1.45,2.27-10.65,8.7-13.23,11.1-2.59,2.41-29.44,31.15-9.09,74.66,0,0-15.78-2.55-14.69,11.66.39,5.1.71,8.93.95,11.78.01.12.38,3.97,2.57,6.63l16-21.45c-.69-.97-1.46-2.62-1.96-3.78.09-.16.2-.3.31-.43,1.28.93,3.48,1.9,3.48,1.9,0,0,28.84-32.99,29.68-35.42.58-1.7-5.41-14.61-9.08-22.24.35-.57.85-.7,1.41-.57,3.83,5.85,8.49,14.89,10.2,18.29.32.63,1.18.72,1.61.16,2.79-3.56,10.9-14.04,12.14-17.03,1.03-2.48-3.41-10.74-6.28-15.65.34-.23.75-.34,1.26-.21,2.91,3.27,5.75,7.19,7.53,9.77.94,1.37,2.92,1.44,3.98.17l20.8-24.96c.88-.28,1.45-.07,1.33,1.05-6.27,8.66-12.92,17.83-16.54,22.83-1.15,1.59-.16,3.81,1.78,4.07,2.58.35,4.47.95,5.99,1.55.01.18-.02.34-.1.49-6.2-.73-13.2,1.2-13.2,1.2,0,0-15.31,16.87-13.09,16.91,1.32.03,3.79,1.62,10.88,3.52,1.38.27,4.35,1.37,6.93,2.36-.03.16-.11.34-.25.52-1.6-.44-3.35-.93-4.88-1.34-8.09-1.56-15.15-.41-15.15-.41,0,0-34.33,33.9-34.56,36.8-.23,2.9,6.09,5.16,3.15,4.55-2.95-.62-5.2-1.98-5.2-1.98l-16.07,21.06c1.51.79,3.48,1.06,6.1.26,3.31-1.09,7.22-2.43,9.38-3.36,4.19-1.82,13.11-4.02,12.67-7.8-.44-3.76-1.21-5.39-1.21-5.39,0,0,22.99.38,28.59-2.38,5.59-2.75,5.52-1.79,8.87-2.56,3.35-.77,20.35-7.53,21.97-10.02,1.62-2.48,6.46-6.87,7.97-7.05,1.5-.18,14.47-7.04,18.01-27.52Z"/><path class="cls-5" d="m537.46,49.67c3.54-20.48,4.47-43.72,4.07-47.11-.4-3.4-1.53-11.49-1.38-15.13.15-3.66-2.38-13.01-1.52-17.98.86-4.97-.54-7.98-4.14-6.02-3.59,1.95-18.64,10.58-22.67,10.48-4.03-.11-28.69,4.68-31.16,8.21-2.45,3.54-6.77,4.23-8.4,5-1.63.76-14.29,8.54-15.75,10.81-1.45,2.27-10.65,8.7-13.23,11.1-2.59,2.41-29.44,31.15-9.09,74.66,0,0-15.78-2.55-14.69,11.66.39,5.1.71,8.93.95,11.78.01.12.38,3.97,2.57,6.63l16-21.45c-.69-.97-1.46-2.62-1.96-3.78.09-.16.2-.3.31-.43,1.28.93,3.48,1.9,3.48,1.9,0,0,28.84-32.99,29.68-35.42.58-1.7-5.41-14.61-9.08-22.24.35-.57.85-.7,1.41-.57,3.83,5.85,8.49,14.89,10.2,18.29.32.63,1.18.72,1.61.16,2.79-3.56,10.9-14.04,12.14-17.03,1.03-2.48-3.41-10.74-6.28-15.65.34-.23.75-.34,1.26-.21,2.91,3.27,5.75,7.19,7.53,9.77.94,1.37,2.92,1.44,3.98.17l20.8-24.96c.88-.28,1.45-.07,1.33,1.05-6.27,8.66-12.92,17.83-16.54,22.83-1.15,1.59-.16,3.81,1.78,4.07,2.58.35,4.47.95,5.99,1.55.01.18-.02.34-.1.49-6.2-.73-13.2,1.2-13.2,1.2,0,0-15.31,16.87-13.09,16.91,1.32.03,3.79,1.62,10.88,3.52,1.38.27,4.35,1.37,6.93,2.36-.03.16-.11.34-.25.52-1.6-.44-3.35-.93-4.88-1.34-8.09-1.56-15.15-.41-15.15-.41,0,0-34.33,33.9-34.56,36.8-.23,2.9,6.09,5.16,3.15,4.55-2.95-.62-5.2-1.98-5.2-1.98l-16.07,21.06c1.51.79,3.48,1.06,6.1.26,3.31-1.09,7.22-2.43,9.38-3.36,4.19-1.82,13.11-4.02,12.67-7.8-.44-3.76-1.21-5.39-1.21-5.39,0,0,22.99.38,28.59-2.38,5.59-2.75,5.52-1.79,8.87-2.56,3.35-.77,20.35-7.53,21.97-10.02,1.62-2.48,6.46-6.87,7.97-7.05,1.5-.18,14.47-7.04,18.01-27.52Z"/><path class="cls-5" d="m721.43,49.67c3.54-20.48,4.47-43.72,4.07-47.11-.4-3.4-1.53-11.49-1.38-15.13.15-3.66-2.38-13.01-1.52-17.98.86-4.97-.54-7.98-4.14-6.02-3.59,1.95-18.64,10.58-22.67,10.48-4.03-.11-28.69,4.68-31.16,8.21-2.45,3.54-6.77,4.23-8.4,5-1.63.76-14.29,8.54-15.75,10.81-1.45,2.27-10.65,8.7-13.23,11.1-2.59,2.41-29.44,31.15-9.09,74.66,0,0-15.78-2.55-14.69,11.66.39,5.1.71,8.93.95,11.78.01.12.38,3.97,2.57,6.63l16-21.45c-.69-.97-1.46-2.62-1.96-3.78.09-.16.2-.3.31-.43,1.28.93,3.48,1.9,3.48,1.9,0,0,28.84-32.99,29.68-35.42.58-1.7-5.41-14.61-9.08-22.24.35-.57.85-.7,1.41-.57,3.83,5.85,8.49,14.89,10.2,18.29.32.63,1.18.72,1.61.16,2.79-3.56,10.9-14.04,12.14-17.03,1.03-2.48-3.41-10.74-6.28-15.65.34-.23.75-.34,1.26-.21,2.91,3.27,5.75,7.19,7.53,9.77.94,1.37,2.92,1.44,3.98.17l20.8-24.96c.88-.28,1.45-.07,1.33,1.05-6.27,8.66-12.92,17.83-16.54,22.83-1.15,1.59-.16,3.81,1.78,4.07,2.58.35,4.47.95,5.99,1.55.01.18-.02.34-.1.49-6.2-.73-13.2,1.2-13.2,1.2,0,0-15.31,16.87-13.09,16.91,1.32.03,3.79,1.62,10.88,3.52,1.38.27,4.35,1.37,6.93,2.36-.03.16-.11.34-.25.52-1.6-.44-3.35-.93-4.88-1.34-8.09-1.56-15.15-.41-15.15-.41,0,0-34.33,33.9-34.56,36.8-.23,2.9,6.09,5.16,3.15,4.55-2.95-.62-5.2-1.98-5.2-1.98l-16.07,21.06c1.51.79,3.48,1.06,6.1.26,3.31-1.09,7.22-2.43,9.38-3.36,4.19-1.82,13.11-4.02,12.67-7.8-.44-3.76-1.21-5.39-1.21-5.39,0,0,22.99.38,28.59-2.38,5.59-2.75,5.52-1.79,8.87-2.56,3.35-.77,20.35-7.53,21.97-10.02,1.62-2.48,6.46-6.87,7.97-7.05,1.5-.18,14.47-7.04,18.01-27.52Z"/><path class="cls-5" d="m905.41,49.67c3.54-20.48,4.47-43.72,4.07-47.11-.4-3.4-1.53-11.49-1.38-15.13.15-3.66-2.38-13.01-1.52-17.98.86-4.97-.54-7.98-4.14-6.02-3.59,1.95-18.64,10.58-22.67,10.48-4.03-.11-28.69,4.68-31.16,8.21-2.45,3.54-6.77,4.23-8.4,5-1.63.76-14.29,8.54-15.75,10.81-1.45,2.27-10.65,8.7-13.23,11.1-2.59,2.41-29.44,31.15-9.09,74.66,0,0-15.78-2.55-14.69,11.66.39,5.1.71,8.93.95,11.78.01.12.38,3.97,2.57,6.63l16-21.45c-.69-.97-1.46-2.62-1.96-3.78.09-.16.2-.3.31-.43,1.28.93,3.48,1.9,3.48,1.9,0,0,28.84-32.99,29.68-35.42.58-1.7-5.41-14.61-9.08-22.24.35-.57.85-.7,1.41-.57,3.83,5.85,8.49,14.89,10.2,18.29.32.63,1.18.72,1.61.16,2.79-3.56,10.9-14.04,12.14-17.03,1.03-2.48-3.41-10.74-6.28-15.65.34-.23.75-.34,1.26-.21,2.91,3.27,5.75,7.19,7.53,9.77.94,1.37,2.92,1.44,3.98.17l20.8-24.96c.88-.28,1.45-.07,1.33,1.05-6.27,8.66-12.92,17.83-16.54,22.83-1.15,1.59-.16,3.81,1.78,4.07,2.58.35,4.47.95,5.99,1.55.01.18-.02.34-.1.49-6.2-.73-13.2,1.2-13.2,1.2,0,0-15.31,16.87-13.09,16.91,1.32.03,3.79,1.62,10.88,3.52,1.38.27,4.35,1.37,6.93,2.36-.03.16-.11.34-.25.52-1.6-.44-3.35-.93-4.88-1.34-8.09-1.56-15.15-.41-15.15-.41,0,0-34.33,33.9-34.56,36.8-.23,2.9,6.09,5.16,3.15,4.55-2.95-.62-5.2-1.98-5.2-1.98l-16.07,21.06c1.51.79,3.48,1.06,6.1.26,3.31-1.09,7.22-2.43,9.38-3.36,4.19-1.82,13.11-4.02,12.67-7.8-.44-3.76-1.21-5.39-1.21-5.39,0,0,22.99.38,28.59-2.38,5.59-2.75,5.52-1.79,8.87-2.56,3.35-.77,20.35-7.53,21.97-10.02,1.62-2.48,6.46-6.87,7.97-7.05,1.5-.18,14.47-7.04,18.01-27.52Z"/><path class="cls-5" d="m898.48,202.36c-3.54-20.48-4.47-43.72-4.07-47.11.4-3.4,1.53-11.49,1.38-15.13-.15-3.66,2.38-13.01,1.52-17.98-.86-4.97.54-7.98,4.14-6.02,3.59,1.95,18.64,10.58,22.67,10.48,4.03-.11,28.69,4.68,31.16,8.21,2.45,3.54,6.77,4.23,8.4,5,1.63.76,14.29,8.54,15.75,10.81,1.45,2.27,10.65,8.7,13.23,11.1,2.59,2.41,29.44,31.15,9.09,74.66,0,0,15.78-2.55,14.69,11.66-.39,5.1-.71,8.93-.95,11.78-.01.12-.38,3.97-2.57,6.63l-16-21.45c.69-.97,1.46-2.62,1.96-3.78-.09-.16-.2-.3-.31-.43-1.28.93-3.48,1.9-3.48,1.9,0,0-28.84-32.99-29.68-35.42-.58-1.7,5.41-14.61,9.08-22.24-.35-.57-.85-.7-1.41-.57-3.83,5.85-8.49,14.89-10.2,18.29-.32.63-1.18.72-1.61.16-2.79-3.56-10.9-14.04-12.14-17.03-1.03-2.48,3.41-10.74,6.28-15.65-.34-.23-.75-.34-1.26-.21-2.91,3.27-5.75,7.19-7.53,9.77-.94,1.37-2.92,1.44-3.98.17l-20.8-24.96c-.88-.28-1.45-.07-1.33,1.05,6.27,8.66,12.92,17.83,16.54,22.83,1.15,1.59.16,3.81-1.78,4.07-2.58.35-4.47.95-5.99,1.55-.01.18.02.34.1.49,6.2-.73,13.2,1.2,13.2,1.2,0,0,15.31,16.87,13.09,16.91-1.32.03-3.79,1.62-10.88,3.52-1.38.27-4.35,1.37-6.93,2.36.03.16.11.34.25.52,1.6-.44,3.35-.93,4.88-1.34,8.09-1.56,15.15-.41,15.15-.41,0,0,34.33,33.9,34.56,36.8.23,2.9-6.09,5.16-3.15,4.55,2.95-.62,5.2-1.98,5.2-1.98l16.07,21.06c-1.51.79-3.48,1.06-6.1.26-3.31-1.09-7.22-2.43-9.38-3.36-4.19-1.82-13.11-4.02-12.67-7.8.44-3.76,1.21-5.39,1.21-5.39,0,0-22.99.38-28.59-2.38-5.59-2.75-5.52-1.79-8.87-2.56-3.35-.77-20.35-7.53-21.97-10.02-1.62-2.48-6.46-6.87-7.97-7.05-1.5-.18-14.47-7.04-18.01-27.52Z"/><path class="cls-5" d="m714.5,202.36c-3.54-20.48-4.47-43.72-4.07-47.11.4-3.4,1.53-11.49,1.38-15.13-.15-3.66,2.38-13.01,1.52-17.98-.86-4.97.54-7.98,4.14-6.02,3.59,1.95,18.64,10.58,22.67,10.48,4.03-.11,28.69,4.68,31.16,8.21,2.45,3.54,6.77,4.23,8.4,5,1.63.76,14.29,8.54,15.75,10.81,1.45,2.27,10.65,8.7,13.23,11.1,2.59,2.41,29.44,31.15,9.09,74.66,0,0,15.78-2.55,14.69,11.66-.39,5.1-.71,8.93-.95,11.78-.01.12-.38,3.97-2.57,6.63l-16-21.45c.69-.97,1.46-2.62,1.96-3.78-.09-.16-.2-.3-.31-.43-1.28.93-3.48,1.9-3.48,1.9,0,0-28.84-32.99-29.68-35.42-.58-1.7,5.41-14.61,9.08-22.24-.35-.57-.85-.7-1.41-.57-3.83,5.85-8.49,14.89-10.2,18.29-.32.63-1.18.72-1.61.16-2.79-3.56-10.9-14.04-12.14-17.03-1.03-2.48,3.41-10.74,6.28-15.65-.34-.23-.75-.34-1.26-.21-2.91,3.27-5.75,7.19-7.53,9.77-.94,1.37-2.92,1.44-3.98.17l-20.8-24.96c-.88-.28-1.45-.07-1.33,1.05,6.27,8.66,12.92,17.83,16.54,22.83,1.15,1.59.16,3.81-1.78,4.07-2.58.35-4.47.95-5.99,1.55-.01.18.02.34.1.49,6.2-.73,13.2,1.2,13.2,1.2,0,0,15.31,16.87,13.09,16.91-1.32.03-3.79,1.62-10.88,3.52-1.38.27-4.35,1.37-6.93,2.36.03.16.11.34.25.52,1.6-.44,3.35-.93,4.88-1.34,8.09-1.56,15.15-.41,15.15-.41,0,0,34.33,33.9,34.56,36.8.23,2.9-6.09,5.16-3.15,4.55,2.95-.62,5.2-1.98,5.2-1.98l16.07,21.06c-1.51.79-3.48,1.06-6.1.26-3.31-1.09-7.22-2.43-9.38-3.36-4.19-1.82-13.11-4.02-12.67-7.8.44-3.76,1.21-5.39,1.21-5.39,0,0-22.99.38-28.59-2.38-5.59-2.75-5.52-1.79-8.87-2.56-3.35-.77-20.35-7.53-21.97-10.02-1.62-2.48-6.46-6.87-7.97-7.05-1.5-.18-14.47-7.04-18.01-27.52Z"/><path class="cls-5" d="m530.53,202.36c-3.54-20.48-4.47-43.72-4.07-47.11.4-3.4,1.53-11.49,1.38-15.13-.15-3.66,2.38-13.01,1.52-17.98-.86-4.97.54-7.98,4.14-6.02,3.59,1.95,18.64,10.58,22.67,10.48,4.03-.11,28.69,4.68,31.16,8.21,2.45,3.54,6.77,4.23,8.4,5,1.63.76,14.29,8.54,15.75,10.81,1.45,2.27,10.65,8.7,13.23,11.1,2.59,2.41,29.44,31.15,9.09,74.66,0,0,15.78-2.55,14.69,11.66-.39,5.1-.71,8.93-.95,11.78-.01.12-.38,3.97-2.57,6.63l-16-21.45c.69-.97,1.46-2.62,1.96-3.78-.09-.16-.2-.3-.31-.43-1.28.93-3.48,1.9-3.48,1.9,0,0-28.84-32.99-29.68-35.42-.58-1.7,5.41-14.61,9.08-22.24-.35-.57-.85-.7-1.41-.57-3.83,5.85-8.49,14.89-10.2,18.29-.32.63-1.18.72-1.61.16-2.79-3.56-10.9-14.04-12.14-17.03-1.03-2.48,3.41-10.74,6.28-15.65-.34-.23-.75-.34-1.26-.21-2.91,3.27-5.75,7.19-7.53,9.77-.94,1.37-2.92,1.44-3.98.17l-20.8-24.96c-.88-.28-1.45-.07-1.33,1.05,6.27,8.66,12.92,17.83,16.54,22.83,1.15,1.59.16,3.81-1.78,4.07-2.58.35-4.47.95-5.99,1.55-.01.18.02.34.1.49,6.2-.73,13.2,1.2,13.2,1.2,0,0,15.31,16.87,13.09,16.91-1.32.03-3.79,1.62-10.88,3.52-1.38.27-4.35,1.37-6.93,2.36.03.16.11.34.25.52,1.6-.44,3.35-.93,4.88-1.34,8.09-1.56,15.15-.41,15.15-.41,0,0,34.33,33.9,34.56,36.8.23,2.9-6.09,5.16-3.15,4.55,2.95-.62,5.2-1.98,5.2-1.98l16.07,21.06c-1.51.79-3.48,1.06-6.1.26-3.31-1.09-7.22-2.43-9.38-3.36-4.19-1.82-13.11-4.02-12.67-7.8.44-3.76,1.21-5.39,1.21-5.39,0,0-22.99.38-28.59-2.38-5.59-2.75-5.52-1.79-8.87-2.56-3.35-.77-20.35-7.53-21.97-10.02-1.62-2.48-6.46-6.87-7.97-7.05-1.5-.18-14.47-7.04-18.01-27.52Z"/><path class="cls-5" d="m346.55,202.36c-3.54-20.48-4.47-43.72-4.07-47.11.4-3.4,1.53-11.49,1.38-15.13-.15-3.66,2.38-13.01,1.52-17.98-.86-4.97.54-7.98,4.14-6.02,3.59,1.95,18.64,10.58,22.67,10.48,4.03-.11,28.69,4.68,31.16,8.21,2.45,3.54,6.77,4.23,8.4,5,1.63.76,14.29,8.54,15.75,10.81,1.45,2.27,10.65,8.7,13.23,11.1,2.59,2.41,29.44,31.15,9.09,74.66,0,0,15.78-2.55,14.69,11.66-.39,5.1-.71,8.93-.95,11.78-.01.12-.38,3.97-2.57,6.63l-16-21.45c.69-.97,1.46-2.62,1.96-3.78-.09-.16-.2-.3-.31-.43-1.28.93-3.48,1.9-3.48,1.9,0,0-28.84-32.99-29.68-35.42-.58-1.7,5.41-14.61,9.08-22.24-.35-.57-.85-.7-1.41-.57-3.83,5.85-8.49,14.89-10.2,18.29-.32.63-1.18.72-1.61.16-2.79-3.56-10.9-14.04-12.14-17.03-1.03-2.48,3.41-10.74,6.28-15.65-.34-.23-.75-.34-1.26-.21-2.91,3.27-5.75,7.19-7.53,9.77-.94,1.37-2.92,1.44-3.98.17l-20.8-24.96c-.88-.28-1.45-.07-1.33,1.05,6.27,8.66,12.92,17.83,16.54,22.83,1.15,1.59.16,3.81-1.78,4.07-2.58.35-4.47.95-5.99,1.55-.01.18.02.34.1.49,6.2-.73,13.2,1.2,13.2,1.2,0,0,15.31,16.87,13.09,16.91-1.32.03-3.79,1.62-10.88,3.52-1.38.27-4.35,1.37-6.93,2.36.03.16.11.34.25.52,1.6-.44,3.35-.93,4.88-1.34,8.09-1.56,15.15-.41,15.15-.41,0,0,34.33,33.9,34.56,36.8.23,2.9-6.09,5.16-3.15,4.55,2.95-.62,5.2-1.98,5.2-1.98l16.07,21.06c-1.51.79-3.48,1.06-6.1.26-3.31-1.09-7.22-2.43-9.38-3.36-4.19-1.82-13.11-4.02-12.67-7.8.44-3.76,1.21-5.39,1.21-5.39,0,0-22.99.38-28.59-2.38-5.59-2.75-5.52-1.79-8.87-2.56-3.35-.77-20.35-7.53-21.97-10.02-1.62-2.48-6.46-6.87-7.97-7.05-1.5-.18-14.47-7.04-18.01-27.52Z"/><path class="cls-5" d="m162.57,202.36c-3.54-20.48-4.47-43.72-4.07-47.11.4-3.4,1.53-11.49,1.38-15.13-.15-3.66,2.38-13.01,1.52-17.98-.86-4.97.54-7.98,4.14-6.02,3.59,1.95,18.64,10.58,22.67,10.48,4.03-.11,28.69,4.68,31.16,8.21,2.45,3.54,6.77,4.23,8.4,5,1.63.76,14.29,8.54,15.75,10.81,1.45,2.27,10.65,8.7,13.23,11.1,2.59,2.41,29.44,31.15,9.09,74.66,0,0,15.78-2.55,14.69,11.66-.39,5.1-.71,8.93-.95,11.78-.01.12-.38,3.97-2.57,6.63l-16-21.45c.69-.97,1.46-2.62,1.96-3.78-.09-.16-.2-.3-.31-.43-1.28.93-3.48,1.9-3.48,1.9,0,0-28.84-32.99-29.68-35.42-.58-1.7,5.41-14.61,9.08-22.24-.35-.57-.85-.7-1.41-.57-3.83,5.85-8.49,14.89-10.2,18.29-.32.63-1.18.72-1.61.16-2.79-3.56-10.9-14.04-12.14-17.03-1.03-2.48,3.41-10.74,6.28-15.65-.34-.23-.75-.34-1.26-.21-2.91,3.27-5.75,7.19-7.53,9.77-.94,1.37-2.92,1.44-3.98.17l-20.8-24.96c-.88-.28-1.45-.07-1.33,1.05,6.27,8.66,12.92,17.83,16.54,22.83,1.15,1.59.16,3.81-1.78,4.07-2.58.35-4.47.95-5.99,1.55-.01.18.02.34.1.49,6.2-.73,13.2,1.2,13.2,1.2,0,0,15.31,16.87,13.09,16.91-1.32.03-3.79,1.62-10.88,3.52-1.38.27-4.35,1.37-6.93,2.36.03.16.11.34.25.52,1.6-.44,3.35-.93,4.88-1.34,8.09-1.56,15.15-.41,15.15-.41,0,0,34.33,33.9,34.56,36.8.23,2.9-6.09,5.16-3.15,4.55,2.95-.62,5.2-1.98,5.2-1.98l16.07,21.06c-1.51.79-3.48,1.06-6.1.26-3.31-1.09-7.22-2.43-9.38-3.36-4.19-1.82-13.11-4.02-12.67-7.8.44-3.76,1.21-5.39,1.21-5.39,0,0-22.99.38-28.59-2.38-5.59-2.75-5.52-1.79-8.87-2.56-3.35-.77-20.35-7.53-21.97-10.02-1.62-2.48-6.46-6.87-7.97-7.05-1.5-.18-14.47-7.04-18.01-27.52Z"/><path class="cls-5" d="m-24.67,202.36c-3.54-20.48-4.47-43.72-4.07-47.11.4-3.4,1.53-11.49,1.38-15.13-.15-3.66,2.38-13.01,1.52-17.98-.86-4.97.54-7.98,4.14-6.02,3.59,1.95,18.64,10.58,22.67,10.48,4.03-.11,28.69,4.68,31.16,8.21,2.45,3.54,6.77,4.23,8.4,5,1.63.76,14.29,8.54,15.75,10.81,1.45,2.27,10.65,8.7,13.23,11.1,2.59,2.41,29.44,31.15,9.09,74.66,0,0,15.78-2.55,14.69,11.66-.39,5.1-.71,8.93-.95,11.78-.01.12-.38,3.97-2.57,6.63l-16-21.45c.69-.97,1.46-2.62,1.96-3.78-.09-.16-.2-.3-.31-.43-1.28.93-3.48,1.9-3.48,1.9,0,0-28.84-32.99-29.68-35.42-.58-1.7,5.41-14.61,9.08-22.24-.35-.57-.85-.7-1.41-.57-3.83,5.85-8.49,14.89-10.2,18.29-.32.63-1.18.72-1.61.16-2.79-3.56-10.9-14.04-12.14-17.03-1.03-2.48,3.41-10.74,6.28-15.65-.34-.23-.75-.34-1.26-.21-2.91,3.27-5.75,7.19-7.53,9.77-.94,1.37-2.92,1.44-3.98.17L-1.3,154.99c-.88-.28-1.45-.07-1.33,1.05,6.27,8.66,12.92,17.83,16.54,22.83,1.15,1.59.16,3.81-1.78,4.07-2.58.35-4.47.95-5.99,1.55-.01.18.02.34.1.49,6.2-.73,13.2,1.2,13.2,1.2,0,0,15.31,16.87,13.09,16.91-1.32.03-3.79,1.62-10.88,3.52-1.38.27-4.35,1.37-6.93,2.36.03.16.11.34.25.52,1.6-.44,3.35-.93,4.88-1.34,8.09-1.56,15.15-.41,15.15-.41,0,0,34.33,33.9,34.56,36.8.23,2.9-6.09,5.16-3.15,4.55,2.95-.62,5.2-1.98,5.2-1.98l16.07,21.06c-1.51.79-3.48,1.06-6.1.26-3.31-1.09-7.22-2.43-9.38-3.36-4.19-1.82-13.11-4.02-12.67-7.8.44-3.76,1.21-5.39,1.21-5.39,0,0-22.99.38-28.59-2.38-5.59-2.75-5.52-1.79-8.87-2.56-3.35-.77-20.35-7.53-21.97-10.02-1.62-2.48-6.46-6.87-7.97-7.05-1.5-.18-14.47-7.04-18.01-27.52Z"/><path class="cls-5" d="m169.5,355.05c3.54-20.48,4.47-43.72,4.07-47.11-.4-3.4-1.53-11.49-1.38-15.13.15-3.66-2.38-13.01-1.52-17.98.86-4.97-.54-7.98-4.14-6.02-3.59,1.95-18.64,10.58-22.67,10.48-4.03-.11-28.69,4.68-31.16,8.21-2.45,3.54-6.77,4.23-8.4,5-1.63.76-14.29,8.54-15.75,10.81-1.45,2.27-10.65,8.7-13.23,11.1-2.59,2.41-29.44,31.15-9.09,74.66,0,0-15.78-2.55-14.69,11.66.39,5.1.71,8.93.95,11.78.01.12.38,3.97,2.57,6.63l16-21.45c-.69-.97-1.46-2.62-1.96-3.78.09-.16.2-.3.31-.43,1.28.93,3.48,1.9,3.48,1.9,0,0,28.84-32.99,29.68-35.42.58-1.7-5.41-14.61-9.08-22.24.35-.57.85-.7,1.41-.57,3.83,5.85,8.49,14.89,10.2,18.29.32.63,1.18.72,1.61.16,2.79-3.56,10.9-14.04,12.14-17.03,1.03-2.48-3.41-10.74-6.28-15.65.34-.23.75-.34,1.26-.21,2.91,3.27,5.75,7.19,7.53,9.77.94,1.37,2.92,1.44,3.98.17l20.8-24.96c.88-.28,1.45-.07,1.33,1.05-6.27,8.66-12.92,17.83-16.54,22.83-1.15,1.59-.16,3.81,1.78,4.07,2.58.35,4.47.95,5.99,1.55.01.18-.02.34-.1.49-6.2-.73-13.2,1.2-13.2,1.2,0,0-15.31,16.87-13.09,16.91,1.32.03,3.79,1.62,10.88,3.52,1.38.27,4.35,1.37,6.93,2.36-.03.16-.11.34-.25.52-1.6-.44-3.35-.93-4.88-1.34-8.09-1.56-15.15-.41-15.15-.41,0,0-34.33,33.9-34.56,36.8-.23,2.9,6.09,5.16,3.15,4.55-2.95-.62-5.2-1.98-5.2-1.98l-16.07,21.06c1.51.79,3.48,1.06,6.1.26,3.31-1.09,7.22-2.43,9.38-3.36,4.19-1.82,13.11-4.02,12.67-7.8-.44-3.76-1.21-5.39-1.21-5.39,0,0,22.99.38,28.59-2.38,5.59-2.75,5.52-1.79,8.87-2.56,3.35-.77,20.35-7.53,21.97-10.02,1.62-2.48,6.46-6.87,7.97-7.05,1.5-.18,14.47-7.04,18.01-27.52Z"/><path class="cls-5" d="m353.48,355.05c3.54-20.48,4.47-43.72,4.07-47.11-.4-3.4-1.53-11.49-1.38-15.13.15-3.66-2.38-13.01-1.52-17.98.86-4.97-.54-7.98-4.14-6.02-3.59,1.95-18.64,10.58-22.67,10.48-4.03-.11-28.69,4.68-31.16,8.21-2.45,3.54-6.77,4.23-8.4,5-1.63.76-14.29,8.54-15.75,10.81-1.45,2.27-10.65,8.7-13.23,11.1-2.59,2.41-29.44,31.15-9.09,74.66,0,0-15.78-2.55-14.69,11.66.39,5.1.71,8.93.95,11.78.01.12.38,3.97,2.57,6.63l16-21.45c-.69-.97-1.46-2.62-1.96-3.78.09-.16.2-.3.31-.43,1.28.93,3.48,1.9,3.48,1.9,0,0,28.84-32.99,29.68-35.42.58-1.7-5.41-14.61-9.08-22.24.35-.57.85-.7,1.41-.57,3.83,5.85,8.49,14.89,10.2,18.29.32.63,1.18.72,1.61.16,2.79-3.56,10.9-14.04,12.14-17.03,1.03-2.48-3.41-10.74-6.28-15.65.34-.23.75-.34,1.26-.21,2.91,3.27,5.75,7.19,7.53,9.77.94,1.37,2.92,1.44,3.98.17l20.8-24.96c.88-.28,1.45-.07,1.33,1.05-6.27,8.66-12.92,17.83-16.54,22.83-1.15,1.59-.16,3.81,1.78,4.07,2.58.35,4.47.95,5.99,1.55.01.18-.02.34-.1.49-6.2-.73-13.2,1.2-13.2,1.2,0,0-15.31,16.87-13.09,16.91,1.32.03,3.79,1.62,10.88,3.52,1.38.27,4.35,1.37,6.93,2.36-.03.16-.11.34-.25.52-1.6-.44-3.35-.93-4.88-1.34-8.09-1.56-15.15-.41-15.15-.41,0,0-34.33,33.9-34.56,36.8-.23,2.9,6.09,5.16,3.15,4.55-2.95-.62-5.2-1.98-5.2-1.98l-16.07,21.06c1.51.79,3.48,1.06,6.1.26,3.31-1.09,7.22-2.43,9.38-3.36,4.19-1.82,13.11-4.02,12.67-7.8-.44-3.76-1.21-5.39-1.21-5.39,0,0,22.99.38,28.59-2.38,5.59-2.75,5.52-1.79,8.87-2.56,3.35-.77,20.35-7.53,21.97-10.02,1.62-2.48,6.46-6.87,7.97-7.05,1.5-.18,14.47-7.04,18.01-27.52Z"/><path class="cls-5" d="m537.46,355.05c3.54-20.48,4.47-43.72,4.07-47.11-.4-3.4-1.53-11.49-1.38-15.13.15-3.66-2.38-13.01-1.52-17.98.86-4.97-.54-7.98-4.14-6.02-3.59,1.95-18.64,10.58-22.67,10.48-4.03-.11-28.69,4.68-31.16,8.21-2.45,3.54-6.77,4.23-8.4,5-1.63.76-14.29,8.54-15.75,10.81-1.45,2.27-10.65,8.7-13.23,11.1-2.59,2.41-29.44,31.15-9.09,74.66,0,0-15.78-2.55-14.69,11.66.39,5.1.71,8.93.95,11.78.01.12.38,3.97,2.57,6.63l16-21.45c-.69-.97-1.46-2.62-1.96-3.78.09-.16.2-.3.31-.43,1.28.93,3.48,1.9,3.48,1.9,0,0,28.84-32.99,29.68-35.42.58-1.7-5.41-14.61-9.08-22.24.35-.57.85-.7,1.41-.57,3.83,5.85,8.49,14.89,10.2,18.29.32.63,1.18.72,1.61.16,2.79-3.56,10.9-14.04,12.14-17.03,1.03-2.48-3.41-10.74-6.28-15.65.34-.23.75-.34,1.26-.21,2.91,3.27,5.75,7.19,7.53,9.77.94,1.37,2.92,1.44,3.98.17l20.8-24.96c.88-.28,1.45-.07,1.33,1.05-6.27,8.66-12.92,17.83-16.54,22.83-1.15,1.59-.16,3.81,1.78,4.07,2.58.35,4.47.95,5.99,1.55.01.18-.02.34-.1.49-6.2-.73-13.2,1.2-13.2,1.2,0,0-15.31,16.87-13.09,16.91,1.32.03,3.79,1.62,10.88,3.52,1.38.27,4.35,1.37,6.93,2.36-.03.16-.11.34-.25.52-1.6-.44-3.35-.93-4.88-1.34-8.09-1.56-15.15-.41-15.15-.41,0,0-34.33,33.9-34.56,36.8-.23,2.9,6.09,5.16,3.15,4.55-2.95-.62-5.2-1.98-5.2-1.98l-16.07,21.06c1.51.79,3.48,1.06,6.1.26,3.31-1.09,7.22-2.43,9.38-3.36,4.19-1.82,13.11-4.02,12.67-7.8-.44-3.76-1.21-5.39-1.21-5.39,0,0,22.99.38,28.59-2.38,5.59-2.75,5.52-1.79,8.87-2.56,3.35-.77,20.35-7.53,21.97-10.02,1.62-2.48,6.46-6.87,7.97-7.05,1.5-.18,14.47-7.04,18.01-27.52Z"/><path class="cls-5" d="m721.43,355.05c3.54-20.48,4.47-43.72,4.07-47.11-.4-3.4-1.53-11.49-1.38-15.13.15-3.66-2.38-13.01-1.52-17.98.86-4.97-.54-7.98-4.14-6.02-3.59,1.95-18.64,10.58-22.67,10.48-4.03-.11-28.69,4.68-31.16,8.21-2.45,3.54-6.77,4.23-8.4,5-1.63.76-14.29,8.54-15.75,10.81-1.45,2.27-10.65,8.7-13.23,11.1-2.59,2.41-29.44,31.15-9.09,74.66,0,0-15.78-2.55-14.69,11.66.39,5.1.71,8.93.95,11.78.01.12.38,3.97,2.57,6.63l16-21.45c-.69-.97-1.46-2.62-1.96-3.78.09-.16.2-.3.31-.43,1.28.93,3.48,1.9,3.48,1.9,0,0,28.84-32.99,29.68-35.42.58-1.7-5.41-14.61-9.08-22.24.35-.57.85-.7,1.41-.57,3.83,5.85,8.49,14.89,10.2,18.29.32.63,1.18.72,1.61.16,2.79-3.56,10.9-14.04,12.14-17.03,1.03-2.48-3.41-10.74-6.28-15.65.34-.23.75-.34,1.26-.21,2.91,3.27,5.75,7.19,7.53,9.77.94,1.37,2.92,1.44,3.98.17l20.8-24.96c.88-.28,1.45-.07,1.33,1.05-6.27,8.66-12.92,17.83-16.54,22.83-1.15,1.59-.16,3.81,1.78,4.07,2.58.35,4.47.95,5.99,1.55.01.18-.02.34-.1.49-6.2-.73-13.2,1.2-13.2,1.2,0,0-15.31,16.87-13.09,16.91,1.32.03,3.79,1.62,10.88,3.52,1.38.27,4.35,1.37,6.93,2.36-.03.16-.11.34-.25.52-1.6-.44-3.35-.93-4.88-1.34-8.09-1.56-15.15-.41-15.15-.41,0,0-34.33,33.9-34.56,36.8-.23,2.9,6.09,5.16,3.15,4.55-2.95-.62-5.2-1.98-5.2-1.98l-16.07,21.06c1.51.79,3.48,1.06,6.1.26,3.31-1.09,7.22-2.43,9.38-3.36,4.19-1.82,13.11-4.02,12.67-7.8-.44-3.76-1.21-5.39-1.21-5.39,0,0,22.99.38,28.59-2.38,5.59-2.75,5.52-1.79,8.87-2.56,3.35-.77,20.35-7.53,21.97-10.02,1.62-2.48,6.46-6.87,7.97-7.05,1.5-.18,14.47-7.04,18.01-27.52Z"/><path class="cls-5" d="m905.41,355.05c3.54-20.48,4.47-43.72,4.07-47.11-.4-3.4-1.53-11.49-1.38-15.13.15-3.66-2.38-13.01-1.52-17.98.86-4.97-.54-7.98-4.14-6.02-3.59,1.95-18.64,10.58-22.67,10.48-4.03-.11-28.69,4.68-31.16,8.21-2.45,3.54-6.77,4.23-8.4,5-1.63.76-14.29,8.54-15.75,10.81-1.45,2.27-10.65,8.7-13.23,11.1-2.59,2.41-29.44,31.15-9.09,74.66,0,0-15.78-2.55-14.69,11.66.39,5.1.71,8.93.95,11.78.01.12.38,3.97,2.57,6.63l16-21.45c-.69-.97-1.46-2.62-1.96-3.78.09-.16.2-.3.31-.43,1.28.93,3.48,1.9,3.48,1.9,0,0,28.84-32.99,29.68-35.42.58-1.7-5.41-14.61-9.08-22.24.35-.57.85-.7,1.41-.57,3.83,5.85,8.49,14.89,10.2,18.29.32.63,1.18.72,1.61.16,2.79-3.56,10.9-14.04,12.14-17.03,1.03-2.48-3.41-10.74-6.28-15.65.34-.23.75-.34,1.26-.21,2.91,3.27,5.75,7.19,7.53,9.77.94,1.37,2.92,1.44,3.98.17l20.8-24.96c.88-.28,1.45-.07,1.33,1.05-6.27,8.66-12.92,17.83-16.54,22.83-1.15,1.59-.16,3.81,1.78,4.07,2.58.35,4.47.95,5.99,1.55.01.18-.02.34-.1.49-6.2-.73-13.2,1.2-13.2,1.2,0,0-15.31,16.87-13.09,16.91,1.32.03,3.79,1.62,10.88,3.52,1.38.27,4.35,1.37,6.93,2.36-.03.16-.11.34-.25.52-1.6-.44-3.35-.93-4.88-1.34-8.09-1.56-15.15-.41-15.15-.41,0,0-34.33,33.9-34.56,36.8-.23,2.9,6.09,5.16,3.15,4.55-2.95-.62-5.2-1.98-5.2-1.98l-16.07,21.06c1.51.79,3.48,1.06,6.1.26,3.31-1.09,7.22-2.43,9.38-3.36,4.19-1.82,13.11-4.02,12.67-7.8-.44-3.76-1.21-5.39-1.21-5.39,0,0,22.99.38,28.59-2.38,5.59-2.75,5.52-1.79,8.87-2.56,3.35-.77,20.35-7.53,21.97-10.02,1.62-2.48,6.46-6.87,7.97-7.05,1.5-.18,14.47-7.04,18.01-27.52Z"/><path class="cls-5" d="m898.48,509.77c-3.54-20.48-4.47-43.72-4.07-47.11.4-3.4,1.53-11.49,1.38-15.13-.15-3.66,2.38-13.01,1.52-17.98-.86-4.97.54-7.98,4.14-6.02,3.59,1.95,18.64,10.58,22.67,10.48,4.03-.11,28.69,4.68,31.16,8.21,2.45,3.54,6.77,4.23,8.4,5,1.63.76,14.29,8.54,15.75,10.81,1.45,2.27,10.65,8.7,13.23,11.1,2.59,2.41,29.44,31.15,9.09,74.66,0,0,15.78-2.55,14.69,11.66-.39,5.1-.71,8.93-.95,11.78-.01.12-.38,3.97-2.57,6.63l-16-21.45c.69-.97,1.46-2.62,1.96-3.78-.09-.16-.2-.3-.31-.43-1.28.93-3.48,1.9-3.48,1.9,0,0-28.84-32.99-29.68-35.42-.58-1.7,5.41-14.61,9.08-22.24-.35-.57-.85-.7-1.41-.57-3.83,5.85-8.49,14.89-10.2,18.29-.32.63-1.18.72-1.61.16-2.79-3.56-10.9-14.04-12.14-17.03-1.03-2.48,3.41-10.74,6.28-15.65-.34-.23-.75-.34-1.26-.21-2.91,3.27-5.75,7.19-7.53,9.77-.94,1.37-2.92,1.44-3.98.17l-20.8-24.96c-.88-.28-1.45-.07-1.33,1.05,6.27,8.66,12.92,17.83,16.54,22.83,1.15,1.59.16,3.81-1.78,4.07-2.58.35-4.47.95-5.99,1.55-.01.18.02.34.1.49,6.2-.73,13.2,1.2,13.2,1.2,0,0,15.31,16.87,13.09,16.91-1.32.03-3.79,1.62-10.88,3.52-1.38.27-4.35,1.37-6.93,2.36.03.16.11.34.25.52,1.6-.44,3.35-.93,4.88-1.34,8.09-1.56,15.15-.41,15.15-.41,0,0,34.33,33.9,34.56,36.8.23,2.9-6.09,5.16-3.15,4.55,2.95-.62,5.2-1.98,5.2-1.98l16.07,21.06c-1.51.79-3.48,1.06-6.1.26-3.31-1.09-7.22-2.43-9.38-3.36-4.19-1.82-13.11-4.02-12.67-7.8.44-3.76,1.21-5.39,1.21-5.39,0,0-22.99.38-28.59-2.38-5.59-2.75-5.52-1.79-8.87-2.56-3.35-.77-20.35-7.53-21.97-10.02-1.62-2.48-6.46-6.87-7.97-7.05-1.5-.18-14.47-7.04-18.01-27.52Z"/><path class="cls-5" d="m714.5,509.77c-3.54-20.48-4.47-43.72-4.07-47.11.4-3.4,1.53-11.49,1.38-15.13-.15-3.66,2.38-13.01,1.52-17.98-.86-4.97.54-7.98,4.14-6.02,3.59,1.95,18.64,10.58,22.67,10.48,4.03-.11,28.69,4.68,31.16,8.21,2.45,3.54,6.77,4.23,8.4,5,1.63.76,14.29,8.54,15.75,10.81,1.45,2.27,10.65,8.7,13.23,11.1,2.59,2.41,29.44,31.15,9.09,74.66,0,0,15.78-2.55,14.69,11.66-.39,5.1-.71,8.93-.95,11.78-.01.12-.38,3.97-2.57,6.63l-16-21.45c.69-.97,1.46-2.62,1.96-3.78-.09-.16-.2-.3-.31-.43-1.28.93-3.48,1.9-3.48,1.9,0,0-28.84-32.99-29.68-35.42-.58-1.7,5.41-14.61,9.08-22.24-.35-.57-.85-.7-1.41-.57-3.83,5.85-8.49,14.89-10.2,18.29-.32.63-1.18.72-1.61.16-2.79-3.56-10.9-14.04-12.14-17.03-1.03-2.48,3.41-10.74,6.28-15.65-.34-.23-.75-.34-1.26-.21-2.91,3.27-5.75,7.19-7.53,9.77-.94,1.37-2.92,1.44-3.98.17l-20.8-24.96c-.88-.28-1.45-.07-1.33,1.05,6.27,8.66,12.92,17.83,16.54,22.83,1.15,1.59.16,3.81-1.78,4.07-2.58.35-4.47.95-5.99,1.55-.01.18.02.34.1.49,6.2-.73,13.2,1.2,13.2,1.2,0,0,15.31,16.87,13.09,16.91-1.32.03-3.79,1.62-10.88,3.52-1.38.27-4.35,1.37-6.93,2.36.03.16.11.34.25.52,1.6-.44,3.35-.93,4.88-1.34,8.09-1.56,15.15-.41,15.15-.41,0,0,34.33,33.9,34.56,36.8.23,2.9-6.09,5.16-3.15,4.55,2.95-.62,5.2-1.98,5.2-1.98l16.07,21.06c-1.51.79-3.48,1.06-6.1.26-3.31-1.09-7.22-2.43-9.38-3.36-4.19-1.82-13.11-4.02-12.67-7.8.44-3.76,1.21-5.39,1.21-5.39,0,0-22.99.38-28.59-2.38-5.59-2.75-5.52-1.79-8.87-2.56-3.35-.77-20.35-7.53-21.97-10.02-1.62-2.48-6.46-6.87-7.97-7.05-1.5-.18-14.47-7.04-18.01-27.52Z"/><path class="cls-5" d="m530.53,509.77c-3.54-20.48-4.47-43.72-4.07-47.11.4-3.4,1.53-11.49,1.38-15.13-.15-3.66,2.38-13.01,1.52-17.98-.86-4.97.54-7.98,4.14-6.02,3.59,1.95,18.64,10.58,22.67,10.48,4.03-.11,28.69,4.68,31.16,8.21,2.45,3.54,6.77,4.23,8.4,5,1.63.76,14.29,8.54,15.75,10.81,1.45,2.27,10.65,8.7,13.23,11.1,2.59,2.41,29.44,31.15,9.09,74.66,0,0,15.78-2.55,14.69,11.66-.39,5.1-.71,8.93-.95,11.78-.01.12-.38,3.97-2.57,6.63l-16-21.45c.69-.97,1.46-2.62,1.96-3.78-.09-.16-.2-.3-.31-.43-1.28.93-3.48,1.9-3.48,1.9,0,0-28.84-32.99-29.68-35.42-.58-1.7,5.41-14.61,9.08-22.24-.35-.57-.85-.7-1.41-.57-3.83,5.85-8.49,14.89-10.2,18.29-.32.63-1.18.72-1.61.16-2.79-3.56-10.9-14.04-12.14-17.03-1.03-2.48,3.41-10.74,6.28-15.65-.34-.23-.75-.34-1.26-.21-2.91,3.27-5.75,7.19-7.53,9.77-.94,1.37-2.92,1.44-3.98.17l-20.8-24.96c-.88-.28-1.45-.07-1.33,1.05,6.27,8.66,12.92,17.83,16.54,22.83,1.15,1.59.16,3.81-1.78,4.07-2.58.35-4.47.95-5.99,1.55-.01.18.02.34.1.49,6.2-.73,13.2,1.2,13.2,1.2,0,0,15.31,16.87,13.09,16.91-1.32.03-3.79,1.62-10.88,3.52-1.38.27-4.35,1.37-6.93,2.36.03.16.11.34.25.52,1.6-.44,3.35-.93,4.88-1.34,8.09-1.56,15.15-.41,15.15-.41,0,0,34.33,33.9,34.56,36.8.23,2.9-6.09,5.16-3.15,4.55,2.95-.62,5.2-1.98,5.2-1.98l16.07,21.06c-1.51.79-3.48,1.06-6.1.26-3.31-1.09-7.22-2.43-9.38-3.36-4.19-1.82-13.11-4.02-12.67-7.8.44-3.76,1.21-5.39,1.21-5.39,0,0-22.99.38-28.59-2.38-5.59-2.75-5.52-1.79-8.87-2.56-3.35-.77-20.35-7.53-21.97-10.02-1.62-2.48-6.46-6.87-7.97-7.05-1.5-.18-14.47-7.04-18.01-27.52Z"/><path class="cls-5" d="m346.55,509.77c-3.54-20.48-4.47-43.72-4.07-47.11.4-3.4,1.53-11.49,1.38-15.13-.15-3.66,2.38-13.01,1.52-17.98-.86-4.97.54-7.98,4.14-6.02,3.59,1.95,18.64,10.58,22.67,10.48,4.03-.11,28.69,4.68,31.16,8.21,2.45,3.54,6.77,4.23,8.4,5,1.63.76,14.29,8.54,15.75,10.81,1.45,2.27,10.65,8.7,13.23,11.1,2.59,2.41,29.44,31.15,9.09,74.66,0,0,15.78-2.55,14.69,11.66-.39,5.1-.71,8.93-.95,11.78-.01.12-.38,3.97-2.57,6.63l-16-21.45c.69-.97,1.46-2.62,1.96-3.78-.09-.16-.2-.3-.31-.43-1.28.93-3.48,1.9-3.48,1.9,0,0-28.84-32.99-29.68-35.42-.58-1.7,5.41-14.61,9.08-22.24-.35-.57-.85-.7-1.41-.57-3.83,5.85-8.49,14.89-10.2,18.29-.32.63-1.18.72-1.61.16-2.79-3.56-10.9-14.04-12.14-17.03-1.03-2.48,3.41-10.74,6.28-15.65-.34-.23-.75-.34-1.26-.21-2.91,3.27-5.75,7.19-7.53,9.77-.94,1.37-2.92,1.44-3.98.17l-20.8-24.96c-.88-.28-1.45-.07-1.33,1.05,6.27,8.66,12.92,17.83,16.54,22.83,1.15,1.59.16,3.81-1.78,4.07-2.58.35-4.47.95-5.99,1.55-.01.18.02.34.1.49,6.2-.73,13.2,1.2,13.2,1.2,0,0,15.31,16.87,13.09,16.91-1.32.03-3.79,1.62-10.88,3.52-1.38.27-4.35,1.37-6.93,2.36.03.16.11.34.25.52,1.6-.44,3.35-.93,4.88-1.34,8.09-1.56,15.15-.41,15.15-.41,0,0,34.33,33.9,34.56,36.8.23,2.9-6.09,5.16-3.15,4.55,2.95-.62,5.2-1.98,5.2-1.98l16.07,21.06c-1.51.79-3.48,1.06-6.1.26-3.31-1.09-7.22-2.43-9.38-3.36-4.19-1.82-13.11-4.02-12.67-7.8.44-3.76,1.21-5.39,1.21-5.39,0,0-22.99.38-28.59-2.38-5.59-2.75-5.52-1.79-8.87-2.56-3.35-.77-20.35-7.53-21.97-10.02-1.62-2.48-6.46-6.87-7.97-7.05-1.5-.18-14.47-7.04-18.01-27.52Z"/><path class="cls-5" d="m162.57,509.77c-3.54-20.48-4.47-43.72-4.07-47.11.4-3.4,1.53-11.49,1.38-15.13-.15-3.66,2.38-13.01,1.52-17.98-.86-4.97.54-7.98,4.14-6.02,3.59,1.95,18.64,10.58,22.67,10.48,4.03-.11,28.69,4.68,31.16,8.21,2.45,3.54,6.77,4.23,8.4,5,1.63.76,14.29,8.54,15.75,10.81,1.45,2.27,10.65,8.7,13.23,11.1,2.59,2.41,29.44,31.15,9.09,74.66,0,0,15.78-2.55,14.69,11.66-.39,5.1-.71,8.93-.95,11.78-.01.12-.38,3.97-2.57,6.63l-16-21.45c.69-.97,1.46-2.62,1.96-3.78-.09-.16-.2-.3-.31-.43-1.28.93-3.48,1.9-3.48,1.9,0,0-28.84-32.99-29.68-35.42-.58-1.7,5.41-14.61,9.08-22.24-.35-.57-.85-.7-1.41-.57-3.83,5.85-8.49,14.89-10.2,18.29-.32.63-1.18.72-1.61.16-2.79-3.56-10.9-14.04-12.14-17.03-1.03-2.48,3.41-10.74,6.28-15.65-.34-.23-.75-.34-1.26-.21-2.91,3.27-5.75,7.19-7.53,9.77-.94,1.37-2.92,1.44-3.98.17l-20.8-24.96c-.88-.28-1.45-.07-1.33,1.05,6.27,8.66,12.92,17.83,16.54,22.83,1.15,1.59.16,3.81-1.78,4.07-2.58.35-4.47.95-5.99,1.55-.01.18.02.34.1.49,6.2-.73,13.2,1.2,13.2,1.2,0,0,15.31,16.87,13.09,16.91-1.32.03-3.79,1.62-10.88,3.52-1.38.27-4.35,1.37-6.93,2.36.03.16.11.34.25.52,1.6-.44,3.35-.93,4.88-1.34,8.09-1.56,15.15-.41,15.15-.41,0,0,34.33,33.9,34.56,36.8.23,2.9-6.09,5.16-3.15,4.55,2.95-.62,5.2-1.98,5.2-1.98l16.07,21.06c-1.51.79-3.48,1.06-6.1.26-3.31-1.09-7.22-2.43-9.38-3.36-4.19-1.82-13.11-4.02-12.67-7.8.44-3.76,1.21-5.39,1.21-5.39,0,0-22.99.38-28.59-2.38-5.59-2.75-5.52-1.79-8.87-2.56-3.35-.77-20.35-7.53-21.97-10.02-1.62-2.48-6.46-6.87-7.97-7.05-1.5-.18-14.47-7.04-18.01-27.52Z"/><path class="cls-5" d="m-24.67,509.77c-3.54-20.48-4.47-43.72-4.07-47.11.4-3.4,1.53-11.49,1.38-15.13-.15-3.66,2.38-13.01,1.52-17.98-.86-4.97.54-7.98,4.14-6.02,3.59,1.95,18.64,10.58,22.67,10.48,4.03-.11,28.69,4.68,31.16,8.21,2.45,3.54,6.77,4.23,8.4,5,1.63.76,14.29,8.54,15.75,10.81,1.45,2.27,10.65,8.7,13.23,11.1,2.59,2.41,29.44,31.15,9.09,74.66,0,0,15.78-2.55,14.69,11.66-.39,5.1-.71,8.93-.95,11.78-.01.12-.38,3.97-2.57,6.63l-16-21.45c.69-.97,1.46-2.62,1.96-3.78-.09-.16-.2-.3-.31-.43-1.28.93-3.48,1.9-3.48,1.9,0,0-28.84-32.99-29.68-35.42-.58-1.7,5.41-14.61,9.08-22.24-.35-.57-.85-.7-1.41-.57-3.83,5.85-8.49,14.89-10.2,18.29-.32.63-1.18.72-1.61.16-2.79-3.56-10.9-14.04-12.14-17.03-1.03-2.48,3.41-10.74,6.28-15.65-.34-.23-.75-.34-1.26-.21-2.91,3.27-5.75,7.19-7.53,9.77-.94,1.37-2.92,1.44-3.98.17l-20.8-24.96c-.88-.28-1.45-.07-1.33,1.05,6.27,8.66,12.92,17.83,16.54,22.83,1.15,1.59.16,3.81-1.78,4.07-2.58.35-4.47.95-5.99,1.55-.01.18.02.34.1.49,6.2-.73,13.2,1.2,13.2,1.2,0,0,15.31,16.87,13.09,16.91-1.32.03-3.79,1.62-10.88,3.52-1.38.27-4.35,1.37-6.93,2.36.03.16.11.34.25.52,1.6-.44,3.35-.93,4.88-1.34,8.09-1.56,15.15-.41,15.15-.41,0,0,34.33,33.9,34.56,36.8.23,2.9-6.09,5.16-3.15,4.55,2.95-.62,5.2-1.98,5.2-1.98l16.07,21.06c-1.51.79-3.48,1.06-6.1.26-3.31-1.09-7.22-2.43-9.38-3.36-4.19-1.82-13.11-4.02-12.67-7.8.44-3.76,1.21-5.39,1.21-5.39,0,0-22.99.38-28.59-2.38-5.59-2.75-5.52-1.79-8.87-2.56-3.35-.77-20.35-7.53-21.97-10.02-1.62-2.48-6.46-6.87-7.97-7.05-1.5-.18-14.47-7.04-18.01-27.52Z"/><path class="cls-5" d="m169.5,662.46c3.54-20.48,4.47-43.72,4.07-47.11-.4-3.4-1.53-11.49-1.38-15.13.15-3.66-2.38-13.01-1.52-17.98.86-4.97-.54-7.98-4.14-6.02-3.59,1.95-18.64,10.58-22.67,10.48-4.03-.11-28.69,4.68-31.16,8.21-2.45,3.54-6.77,4.23-8.4,5-1.63.76-14.29,8.54-15.75,10.81-1.45,2.27-10.65,8.7-13.23,11.1-2.59,2.41-29.44,31.15-9.09,74.66,0,0-15.78-2.55-14.69,11.66.39,5.1.71,8.93.95,11.78.01.12.38,3.97,2.57,6.63l16-21.45c-.69-.97-1.46-2.62-1.96-3.78.09-.16.2-.3.31-.43,1.28.93,3.48,1.9,3.48,1.9,0,0,28.84-32.99,29.68-35.42.58-1.7-5.41-14.61-9.08-22.24.35-.57.85-.7,1.41-.57,3.83,5.85,8.49,14.89,10.2,18.29.32.63,1.18.72,1.61.16,2.79-3.56,10.9-14.04,12.14-17.03,1.03-2.48-3.41-10.74-6.28-15.65.34-.23.75-.34,1.26-.21,2.91,3.27,5.75,7.19,7.53,9.77.94,1.37,2.92,1.44,3.98.17l20.8-24.96c.88-.28,1.45-.07,1.33,1.05-6.27,8.66-12.92,17.83-16.54,22.83-1.15,1.59-.16,3.81,1.78,4.07,2.58.35,4.47.95,5.99,1.55.01.18-.02.34-.1.49-6.2-.73-13.2,1.2-13.2,1.2,0,0-15.31,16.87-13.09,16.91,1.32.03,3.79,1.62,10.88,3.52,1.38.27,4.35,1.37,6.93,2.36-.03.16-.11.34-.25.52-1.6-.44-3.35-.93-4.88-1.34-8.09-1.56-15.15-.41-15.15-.41,0,0-34.33,33.9-34.56,36.8-.23,2.9,6.09,5.16,3.15,4.55-2.95-.62-5.2-1.98-5.2-1.98l-16.07,21.06c1.51.79,3.48,1.06,6.1.26,3.31-1.09,7.22-2.43,9.38-3.36,4.19-1.82,13.11-4.02,12.67-7.8-.44-3.76-1.21-5.39-1.21-5.39,0,0,22.99.38,28.59-2.38,5.59-2.75,5.52-1.79,8.87-2.56,3.35-.77,20.35-7.53,21.97-10.02,1.62-2.48,6.46-6.87,7.97-7.05,1.5-.18,14.47-7.04,18.01-27.52Z"/><path class="cls-5" d="m353.48,662.46c3.54-20.48,4.47-43.72,4.07-47.11-.4-3.4-1.53-11.49-1.38-15.13.15-3.66-2.38-13.01-1.52-17.98.86-4.97-.54-7.98-4.14-6.02-3.59,1.95-18.64,10.58-22.67,10.48-4.03-.11-28.69,4.68-31.16,8.21-2.45,3.54-6.77,4.23-8.4,5-1.63.76-14.29,8.54-15.75,10.81-1.45,2.27-10.65,8.7-13.23,11.1-2.59,2.41-29.44,31.15-9.09,74.66,0,0-15.78-2.55-14.69,11.66.39,5.1.71,8.93.95,11.78.01.12.38,3.97,2.57,6.63l16-21.45c-.69-.97-1.46-2.62-1.96-3.78.09-.16.2-.3.31-.43,1.28.93,3.48,1.9,3.48,1.9,0,0,28.84-32.99,29.68-35.42.58-1.7-5.41-14.61-9.08-22.24.35-.57.85-.7,1.41-.57,3.83,5.85,8.49,14.89,10.2,18.29.32.63,1.18.72,1.61.16,2.79-3.56,10.9-14.04,12.14-17.03,1.03-2.48-3.41-10.74-6.28-15.65.34-.23.75-.34,1.26-.21,2.91,3.27,5.75,7.19,7.53,9.77.94,1.37,2.92,1.44,3.98.17l20.8-24.96c.88-.28,1.45-.07,1.33,1.05-6.27,8.66-12.92,17.83-16.54,22.83-1.15,1.59-.16,3.81,1.78,4.07,2.58.35,4.47.95,5.99,1.55.01.18-.02.34-.1.49-6.2-.73-13.2,1.2-13.2,1.2,0,0-15.31,16.87-13.09,16.91,1.32.03,3.79,1.62,10.88,3.52,1.38.27,4.35,1.37,6.93,2.36-.03.16-.11.34-.25.52-1.6-.44-3.35-.93-4.88-1.34-8.09-1.56-15.15-.41-15.15-.41,0,0-34.33,33.9-34.56,36.8-.23,2.9,6.09,5.16,3.15,4.55-2.95-.62-5.2-1.98-5.2-1.98l-16.07,21.06c1.51.79,3.48,1.06,6.1.26,3.31-1.09,7.22-2.43,9.38-3.36,4.19-1.82,13.11-4.02,12.67-7.8-.44-3.76-1.21-5.39-1.21-5.39,0,0,22.99.38,28.59-2.38,5.59-2.75,5.52-1.79,8.87-2.56,3.35-.77,20.35-7.53,21.97-10.02,1.62-2.48,6.46-6.87,7.97-7.05,1.5-.18,14.47-7.04,18.01-27.52Z"/><path class="cls-5" d="m537.46,662.46c3.54-20.48,4.47-43.72,4.07-47.11-.4-3.4-1.53-11.49-1.38-15.13.15-3.66-2.38-13.01-1.52-17.98.86-4.97-.54-7.98-4.14-6.02-3.59,1.95-18.64,10.58-22.67,10.48-4.03-.11-28.69,4.68-31.16,8.21-2.45,3.54-6.77,4.23-8.4,5-1.63.76-14.29,8.54-15.75,10.81-1.45,2.27-10.65,8.7-13.23,11.1-2.59,2.41-29.44,31.15-9.09,74.66,0,0-15.78-2.55-14.69,11.66.39,5.1.71,8.93.95,11.78.01.12.38,3.97,2.57,6.63l16-21.45c-.69-.97-1.46-2.62-1.96-3.78.09-.16.2-.3.31-.43,1.28.93,3.48,1.9,3.48,1.9,0,0,28.84-32.99,29.68-35.42.58-1.7-5.41-14.61-9.08-22.24.35-.57.85-.7,1.41-.57,3.83,5.85,8.49,14.89,10.2,18.29.32.63,1.18.72,1.61.16,2.79-3.56,10.9-14.04,12.14-17.03,1.03-2.48-3.41-10.74-6.28-15.65.34-.23.75-.34,1.26-.21,2.91,3.27,5.75,7.19,7.53,9.77.94,1.37,2.92,1.44,3.98.17l20.8-24.96c.88-.28,1.45-.07,1.33,1.05-6.27,8.66-12.92,17.83-16.54,22.83-1.15,1.59-.16,3.81,1.78,4.07,2.58.35,4.47.95,5.99,1.55.01.18-.02.34-.1.49-6.2-.73-13.2,1.2-13.2,1.2,0,0-15.31,16.87-13.09,16.91,1.32.03,3.79,1.62,10.88,3.52,1.38.27,4.35,1.37,6.93,2.36-.03.16-.11.34-.25.52-1.6-.44-3.35-.93-4.88-1.34-8.09-1.56-15.15-.41-15.15-.41,0,0-34.33,33.9-34.56,36.8-.23,2.9,6.09,5.16,3.15,4.55-2.95-.62-5.2-1.98-5.2-1.98l-16.07,21.06c1.51.79,3.48,1.06,6.1.26,3.31-1.09,7.22-2.43,9.38-3.36,4.19-1.82,13.11-4.02,12.67-7.8-.44-3.76-1.21-5.39-1.21-5.39,0,0,22.99.38,28.59-2.38,5.59-2.75,5.52-1.79,8.87-2.56,3.35-.77,20.35-7.53,21.97-10.02,1.62-2.48,6.46-6.87,7.97-7.05,1.5-.18,14.47-7.04,18.01-27.52Z"/><path class="cls-5" d="m721.43,662.46c3.54-20.48,4.47-43.72,4.07-47.11-.4-3.4-1.53-11.49-1.38-15.13.15-3.66-2.38-13.01-1.52-17.98.86-4.97-.54-7.98-4.14-6.02-3.59,1.95-18.64,10.58-22.67,10.48-4.03-.11-28.69,4.68-31.16,8.21-2.45,3.54-6.77,4.23-8.4,5-1.63.76-14.29,8.54-15.75,10.81-1.45,2.27-10.65,8.7-13.23,11.1-2.59,2.41-29.44,31.15-9.09,74.66,0,0-15.78-2.55-14.69,11.66.39,5.1.71,8.93.95,11.78.01.12.38,3.97,2.57,6.63l16-21.45c-.69-.97-1.46-2.62-1.96-3.78.09-.16.2-.3.31-.43,1.28.93,3.48,1.9,3.48,1.9,0,0,28.84-32.99,29.68-35.42.58-1.7-5.41-14.61-9.08-22.24.35-.57.85-.7,1.41-.57,3.83,5.85,8.49,14.89,10.2,18.29.32.63,1.18.72,1.61.16,2.79-3.56,10.9-14.04,12.14-17.03,1.03-2.48-3.41-10.74-6.28-15.65.34-.23.75-.34,1.26-.21,2.91,3.27,5.75,7.19,7.53,9.77.94,1.37,2.92,1.44,3.98.17l20.8-24.96c.88-.28,1.45-.07,1.33,1.05-6.27,8.66-12.92,17.83-16.54,22.83-1.15,1.59-.16,3.81,1.78,4.07,2.58.35,4.47.95,5.99,1.55.01.18-.02.34-.1.49-6.2-.73-13.2,1.2-13.2,1.2,0,0-15.31,16.87-13.09,16.91,1.32.03,3.79,1.62,10.88,3.52,1.38.27,4.35,1.37,6.93,2.36-.03.16-.11.34-.25.52-1.6-.44-3.35-.93-4.88-1.34-8.09-1.56-15.15-.41-15.15-.41,0,0-34.33,33.9-34.56,36.8-.23,2.9,6.09,5.16,3.15,4.55-2.95-.62-5.2-1.98-5.2-1.98l-16.07,21.06c1.51.79,3.48,1.06,6.1.26,3.31-1.09,7.22-2.43,9.38-3.36,4.19-1.82,13.11-4.02,12.67-7.8-.44-3.76-1.21-5.39-1.21-5.39,0,0,22.99.38,28.59-2.38,5.59-2.75,5.52-1.79,8.87-2.56,3.35-.77,20.35-7.53,21.97-10.02,1.62-2.48,6.46-6.87,7.97-7.05,1.5-.18,14.47-7.04,18.01-27.52Z"/><path class="cls-5" d="m905.41,662.46c3.54-20.48,4.47-43.72,4.07-47.11-.4-3.4-1.53-11.49-1.38-15.13.15-3.66-2.38-13.01-1.52-17.98.86-4.97-.54-7.98-4.14-6.02-3.59,1.95-18.64,10.58-22.67,10.48-4.03-.11-28.69,4.68-31.16,8.21-2.45,3.54-6.77,4.23-8.4,5-1.63.76-14.29,8.54-15.75,10.81-1.45,2.27-10.65,8.7-13.23,11.1-2.59,2.41-29.44,31.15-9.09,74.66,0,0-15.78-2.55-14.69,11.66.39,5.1.71,8.93.95,11.78.01.12.38,3.97,2.57,6.63l16-21.45c-.69-.97-1.46-2.62-1.96-3.78.09-.16.2-.3.31-.43,1.28.93,3.48,1.9,3.48,1.9,0,0,28.84-32.99,29.68-35.42.58-1.7-5.41-14.61-9.08-22.24.35-.57.85-.7,1.41-.57,3.83,5.85,8.49,14.89,10.2,18.29.32.63,1.18.72,1.61.16,2.79-3.56,10.9-14.04,12.14-17.03,1.03-2.48-3.41-10.74-6.28-15.65.34-.23.75-.34,1.26-.21,2.91,3.27,5.75,7.19,7.53,9.77.94,1.37,2.92,1.44,3.98.17l20.8-24.96c.88-.28,1.45-.07,1.33,1.05-6.27,8.66-12.92,17.83-16.54,22.83-1.15,1.59-.16,3.81,1.78,4.07,2.58.35,4.47.95,5.99,1.55.01.18-.02.34-.1.49-6.2-.73-13.2,1.2-13.2,1.2,0,0-15.31,16.87-13.09,16.91,1.32.03,3.79,1.62,10.88,3.52,1.38.27,4.35,1.37,6.93,2.36-.03.16-.11.34-.25.52-1.6-.44-3.35-.93-4.88-1.34-8.09-1.56-15.15-.41-15.15-.41,0,0-34.33,33.9-34.56,36.8-.23,2.9,6.09,5.16,3.15,4.55-2.95-.62-5.2-1.98-5.2-1.98l-16.07,21.06c1.51.79,3.48,1.06,6.1.26,3.31-1.09,7.22-2.43,9.38-3.36,4.19-1.82,13.11-4.02,12.67-7.8-.44-3.76-1.21-5.39-1.21-5.39,0,0,22.99.38,28.59-2.38,5.59-2.75,5.52-1.79,8.87-2.56,3.35-.77,20.35-7.53,21.97-10.02,1.62-2.48,6.46-6.87,7.97-7.05,1.5-.18,14.47-7.04,18.01-27.52Z"/></g><g class="cls-4"><path class="cls-5" d="m1092.62,49.67c3.54-20.48,4.47-43.72,4.07-47.11-.4-3.4-1.53-11.49-1.38-15.13.15-3.66-2.38-13.01-1.52-17.98.86-4.97-.54-7.98-4.14-6.02-3.59,1.95-18.64,10.58-22.67,10.48-4.03-.11-28.69,4.68-31.16,8.21-2.45,3.54-6.77,4.23-8.4,5-1.63.76-14.29,8.54-15.75,10.81-1.45,2.27-10.65,8.7-13.23,11.1-2.59,2.41-29.44,31.15-9.09,74.66,0,0-15.78-2.55-14.69,11.66.39,5.1.71,8.93.95,11.78.01.12.38,3.97,2.57,6.63l16-21.45c-.69-.97-1.46-2.62-1.96-3.78.09-.16.2-.3.31-.43,1.28.93,3.48,1.9,3.48,1.9,0,0,28.84-32.99,29.68-35.42.58-1.7-5.41-14.61-9.08-22.24.35-.57.85-.7,1.41-.57,3.83,5.85,8.49,14.89,10.2,18.29.32.63,1.18.72,1.61.16,2.79-3.56,10.9-14.04,12.14-17.03,1.03-2.48-3.41-10.74-6.28-15.65.34-.23.75-.34,1.26-.21,2.91,3.27,5.75,7.19,7.53,9.77.94,1.37,2.92,1.44,3.98.17l20.8-24.96c.88-.28,1.45-.07,1.33,1.05-6.27,8.66-12.92,17.83-16.54,22.83-1.15,1.59-.16,3.81,1.78,4.07,2.58.35,4.47.95,5.99,1.55.01.18-.02.34-.1.49-6.2-.73-13.2,1.2-13.2,1.2,0,0-15.31,16.87-13.09,16.91,1.32.03,3.79,1.62,10.88,3.52,1.38.27,4.35,1.37,6.93,2.36-.03.16-.11.34-.25.52-1.6-.44-3.35-.93-4.88-1.34-8.09-1.56-15.15-.41-15.15-.41,0,0-34.33,33.9-34.56,36.8-.23,2.9,6.09,5.16,3.15,4.55-2.95-.62-5.2-1.98-5.2-1.98l-16.07,21.06c1.51.79,3.48,1.06,6.1.26,3.31-1.09,7.22-2.43,9.38-3.36,4.19-1.82,13.11-4.02,12.67-7.8-.44-3.76-1.21-5.39-1.21-5.39,0,0,22.99.38,28.59-2.38,5.59-2.75,5.52-1.79,8.87-2.56,3.35-.77,20.35-7.53,21.97-10.02,1.62-2.48,6.46-6.87,7.97-7.05,1.5-.18,14.47-7.04,18.01-27.52Z"/><path class="cls-5" d="m1276.59,49.67c3.54-20.48,4.47-43.72,4.07-47.11-.4-3.4-1.53-11.49-1.38-15.13.15-3.66-2.38-13.01-1.52-17.98.86-4.97-.54-7.98-4.14-6.02-3.59,1.95-18.64,10.58-22.67,10.48-4.03-.11-28.69,4.68-31.16,8.21-2.45,3.54-6.77,4.23-8.4,5-1.63.76-14.29,8.54-15.75,10.81-1.45,2.27-10.65,8.7-13.23,11.1-2.59,2.41-29.44,31.15-9.09,74.66,0,0-15.78-2.55-14.69,11.66.39,5.1.71,8.93.95,11.78.01.12.38,3.97,2.57,6.63l16-21.45c-.69-.97-1.46-2.62-1.96-3.78.09-.16.2-.3.31-.43,1.28.93,3.48,1.9,3.48,1.9,0,0,28.84-32.99,29.68-35.42.58-1.7-5.41-14.61-9.08-22.24.35-.57.85-.7,1.41-.57,3.83,5.85,8.49,14.89,10.2,18.29.32.63,1.18.72,1.61.16,2.79-3.56,10.9-14.04,12.14-17.03,1.03-2.48-3.41-10.74-6.28-15.65.34-.23.75-.34,1.26-.21,2.91,3.27,5.75,7.19,7.53,9.77.94,1.37,2.92,1.44,3.98.17l20.8-24.96c.88-.28,1.45-.07,1.33,1.05-6.27,8.66-12.92,17.83-16.54,22.83-1.15,1.59-.16,3.81,1.78,4.07,2.58.35,4.47.95,5.99,1.55.01.18-.02.34-.1.49-6.2-.73-13.2,1.2-13.2,1.2,0,0-15.31,16.87-13.09,16.91,1.32.03,3.79,1.62,10.88,3.52,1.38.27,4.35,1.37,6.93,2.36-.03.16-.11.34-.25.52-1.6-.44-3.35-.93-4.88-1.34-8.09-1.56-15.15-.41-15.15-.41,0,0-34.33,33.9-34.56,36.8-.23,2.9,6.09,5.16,3.15,4.55-2.95-.62-5.2-1.98-5.2-1.98l-16.07,21.06c1.51.79,3.48,1.06,6.1.26,3.31-1.09,7.22-2.43,9.38-3.36,4.19-1.82,13.11-4.02,12.67-7.8-.44-3.76-1.21-5.39-1.21-5.39,0,0,22.99.38,28.59-2.38,5.59-2.75,5.52-1.79,8.87-2.56,3.35-.77,20.35-7.53,21.97-10.02,1.62-2.48,6.46-6.87,7.97-7.05,1.5-.18,14.47-7.04,18.01-27.52Z"/><path class="cls-5" d="m1269.66,202.36c-3.54-20.48-4.47-43.72-4.07-47.11.4-3.4,1.53-11.49,1.38-15.13-.15-3.66,2.38-13.01,1.52-17.98-.86-4.97.54-7.98,4.14-6.02,3.59,1.95,18.64,10.58,22.67,10.48,4.03-.11,28.69,4.68,31.16,8.21,2.45,3.54,6.77,4.23,8.4,5,1.63.76,14.29,8.54,15.75,10.81,1.45,2.27,10.65,8.7,13.23,11.1,2.59,2.41,29.44,31.15,9.09,74.66,0,0,15.78-2.55,14.69,11.66-.39,5.1-.71,8.93-.95,11.78-.01.12-.38,3.97-2.57,6.63l-16-21.45c.69-.97,1.46-2.62,1.96-3.78-.09-.16-.2-.3-.31-.43-1.28.93-3.48,1.9-3.48,1.9,0,0-28.84-32.99-29.68-35.42-.58-1.7,5.41-14.61,9.08-22.24-.35-.57-.85-.7-1.41-.57-3.83,5.85-8.49,14.89-10.2,18.29-.32.63-1.18.72-1.61.16-2.79-3.56-10.9-14.04-12.14-17.03-1.03-2.48,3.41-10.74,6.28-15.65-.34-.23-.75-.34-1.26-.21-2.91,3.27-5.75,7.19-7.53,9.77-.94,1.37-2.92,1.44-3.98.17l-20.8-24.96c-.88-.28-1.45-.07-1.33,1.05,6.27,8.66,12.92,17.83,16.54,22.83,1.15,1.59.16,3.81-1.78,4.07-2.58.35-4.47.95-5.99,1.55-.01.18.02.34.1.49,6.2-.73,13.2,1.2,13.2,1.2,0,0,15.31,16.87,13.09,16.91-1.32.03-3.79,1.62-10.88,3.52-1.38.27-4.35,1.37-6.93,2.36.03.16.11.34.25.52,1.6-.44,3.35-.93,4.88-1.34,8.09-1.56,15.15-.41,15.15-.41,0,0,34.33,33.9,34.56,36.8.23,2.9-6.09,5.16-3.15,4.55,2.95-.62,5.2-1.98,5.2-1.98l16.07,21.06c-1.51.79-3.48,1.06-6.1.26-3.31-1.09-7.22-2.43-9.38-3.36-4.19-1.82-13.11-4.02-12.67-7.8.44-3.76,1.21-5.39,1.21-5.39,0,0-22.99.38-28.59-2.38-5.59-2.75-5.52-1.79-8.87-2.56-3.35-.77-20.35-7.53-21.97-10.02-1.62-2.48-6.46-6.87-7.97-7.05-1.5-.18-14.47-7.04-18.01-27.52Z"/><path class="cls-5" d="m1085.68,202.36c-3.54-20.48-4.47-43.72-4.07-47.11.4-3.4,1.53-11.49,1.38-15.13-.15-3.66,2.38-13.01,1.52-17.98-.86-4.97.54-7.98,4.14-6.02,3.59,1.95,18.64,10.58,22.67,10.48,4.03-.11,28.69,4.68,31.16,8.21,2.45,3.54,6.77,4.23,8.4,5,1.63.76,14.29,8.54,15.75,10.81,1.45,2.27,10.65,8.7,13.23,11.1,2.59,2.41,29.44,31.15,9.09,74.66,0,0,15.78-2.55,14.69,11.66-.39,5.1-.71,8.93-.95,11.78-.01.12-.38,3.97-2.57,6.63l-16-21.45c.69-.97,1.46-2.62,1.96-3.78-.09-.16-.2-.3-.31-.43-1.28.93-3.48,1.9-3.48,1.9,0,0-28.84-32.99-29.68-35.42-.58-1.7,5.41-14.61,9.08-22.24-.35-.57-.85-.7-1.41-.57-3.83,5.85-8.49,14.89-10.2,18.29-.32.63-1.18.72-1.61.16-2.79-3.56-10.9-14.04-12.14-17.03-1.03-2.48,3.41-10.74,6.28-15.65-.34-.23-.75-.34-1.26-.21-2.91,3.27-5.75,7.19-7.53,9.77-.94,1.37-2.92,1.44-3.98.17l-20.8-24.96c-.88-.28-1.45-.07-1.33,1.05,6.27,8.66,12.92,17.83,16.54,22.83,1.15,1.59.16,3.81-1.78,4.07-2.58.35-4.47.95-5.99,1.55-.01.18.02.34.1.49,6.2-.73,13.2,1.2,13.2,1.2,0,0,15.31,16.87,13.09,16.91-1.32.03-3.79,1.62-10.88,3.52-1.38.27-4.35,1.37-6.93,2.36.03.16.11.34.25.52,1.6-.44,3.35-.93,4.88-1.34,8.09-1.56,15.15-.41,15.15-.41,0,0,34.33,33.9,34.56,36.8.23,2.9-6.09,5.16-3.15,4.55,2.95-.62,5.2-1.98,5.2-1.98l16.07,21.06c-1.51.79-3.48,1.06-6.1.26-3.31-1.09-7.22-2.43-9.38-3.36-4.19-1.82-13.11-4.02-12.67-7.8.44-3.76,1.21-5.39,1.21-5.39,0,0-22.99.38-28.59-2.38-5.59-2.75-5.52-1.79-8.87-2.56-3.35-.77-20.35-7.53-21.97-10.02-1.62-2.48-6.46-6.87-7.97-7.05-1.5-.18-14.47-7.04-18.01-27.52Z"/><path class="cls-5" d="m1092.62,355.05c3.54-20.48,4.47-43.72,4.07-47.11-.4-3.4-1.53-11.49-1.38-15.13.15-3.66-2.38-13.01-1.52-17.98.86-4.97-.54-7.98-4.14-6.02-3.59,1.95-18.64,10.58-22.67,10.48-4.03-.11-28.69,4.68-31.16,8.21-2.45,3.54-6.77,4.23-8.4,5-1.63.76-14.29,8.54-15.75,10.81-1.45,2.27-10.65,8.7-13.23,11.1-2.59,2.41-29.44,31.15-9.09,74.66,0,0-15.78-2.55-14.69,11.66.39,5.1.71,8.93.95,11.78.01.12.38,3.97,2.57,6.63l16-21.45c-.69-.97-1.46-2.62-1.96-3.78.09-.16.2-.3.31-.43,1.28.93,3.48,1.9,3.48,1.9,0,0,28.84-32.99,29.68-35.42.58-1.7-5.41-14.61-9.08-22.24.35-.57.85-.7,1.41-.57,3.83,5.85,8.49,14.89,10.2,18.29.32.63,1.18.72,1.61.16,2.79-3.56,10.9-14.04,12.14-17.03,1.03-2.48-3.41-10.74-6.28-15.65.34-.23.75-.34,1.26-.21,2.91,3.27,5.75,7.19,7.53,9.77.94,1.37,2.92,1.44,3.98.17l20.8-24.96c.88-.28,1.45-.07,1.33,1.05-6.27,8.66-12.92,17.83-16.54,22.83-1.15,1.59-.16,3.81,1.78,4.07,2.58.35,4.47.95,5.99,1.55.01.18-.02.34-.1.49-6.2-.73-13.2,1.2-13.2,1.2,0,0-15.31,16.87-13.09,16.91,1.32.03,3.79,1.62,10.88,3.52,1.38.27,4.35,1.37,6.93,2.36-.03.16-.11.34-.25.52-1.6-.44-3.35-.93-4.88-1.34-8.09-1.56-15.15-.41-15.15-.41,0,0-34.33,33.9-34.56,36.8-.23,2.9,6.09,5.16,3.15,4.55-2.95-.62-5.2-1.98-5.2-1.98l-16.07,21.06c1.51.79,3.48,1.06,6.1.26,3.31-1.09,7.22-2.43,9.38-3.36,4.19-1.82,13.11-4.02,12.67-7.8-.44-3.76-1.21-5.39-1.21-5.39,0,0,22.99.38,28.59-2.38,5.59-2.75,5.52-1.79,8.87-2.56,3.35-.77,20.35-7.53,21.97-10.02,1.62-2.48,6.46-6.87,7.97-7.05,1.5-.18,14.47-7.04,18.01-27.52Z"/><path class="cls-5" d="m1276.59,355.05c3.54-20.48,4.47-43.72,4.07-47.11-.4-3.4-1.53-11.49-1.38-15.13.15-3.66-2.38-13.01-1.52-17.98.86-4.97-.54-7.98-4.14-6.02-3.59,1.95-18.64,10.58-22.67,10.48-4.03-.11-28.69,4.68-31.16,8.21-2.45,3.54-6.77,4.23-8.4,5-1.63.76-14.29,8.54-15.75,10.81-1.45,2.27-10.65,8.7-13.23,11.1-2.59,2.41-29.44,31.15-9.09,74.66,0,0-15.78-2.55-14.69,11.66.39,5.1.71,8.93.95,11.78.01.12.38,3.97,2.57,6.63l16-21.45c-.69-.97-1.46-2.62-1.96-3.78.09-.16.2-.3.31-.43,1.28.93,3.48,1.9,3.48,1.9,0,0,28.84-32.99,29.68-35.42.58-1.7-5.41-14.61-9.08-22.24.35-.57.85-.7,1.41-.57,3.83,5.85,8.49,14.89,10.2,18.29.32.63,1.18.72,1.61.16,2.79-3.56,10.9-14.04,12.14-17.03,1.03-2.48-3.41-10.74-6.28-15.65.34-.23.75-.34,1.26-.21,2.91,3.27,5.75,7.19,7.53,9.77.94,1.37,2.92,1.44,3.98.17l20.8-24.96c.88-.28,1.45-.07,1.33,1.05-6.27,8.66-12.92,17.83-16.54,22.83-1.15,1.59-.16,3.81,1.78,4.07,2.58.35,4.47.95,5.99,1.55.01.18-.02.34-.1.49-6.2-.73-13.2,1.2-13.2,1.2,0,0-15.31,16.87-13.09,16.91,1.32.03,3.79,1.62,10.88,3.52,1.38.27,4.35,1.37,6.93,2.36-.03.16-.11.34-.25.52-1.6-.44-3.35-.93-4.88-1.34-8.09-1.56-15.15-.41-15.15-.41,0,0-34.33,33.9-34.56,36.8-.23,2.9,6.09,5.16,3.15,4.55-2.95-.62-5.2-1.98-5.2-1.98l-16.07,21.06c1.51.79,3.48,1.06,6.1.26,3.31-1.09,7.22-2.43,9.38-3.36,4.19-1.82,13.11-4.02,12.67-7.8-.44-3.76-1.21-5.39-1.21-5.39,0,0,22.99.38,28.59-2.38,5.59-2.75,5.52-1.79,8.87-2.56,3.35-.77,20.35-7.53,21.97-10.02,1.62-2.48,6.46-6.87,7.97-7.05,1.5-.18,14.47-7.04,18.01-27.52Z"/><path class="cls-5" d="m1269.66,509.77c-3.54-20.48-4.47-43.72-4.07-47.11.4-3.4,1.53-11.49,1.38-15.13-.15-3.66,2.38-13.01,1.52-17.98-.86-4.97.54-7.98,4.14-6.02,3.59,1.95,18.64,10.58,22.67,10.48,4.03-.11,28.69,4.68,31.16,8.21,2.45,3.54,6.77,4.23,8.4,5,1.63.76,14.29,8.54,15.75,10.81,1.45,2.27,10.65,8.7,13.23,11.1,2.59,2.41,29.44,31.15,9.09,74.66,0,0,15.78-2.55,14.69,11.66-.39,5.1-.71,8.93-.95,11.78-.01.12-.38,3.97-2.57,6.63l-16-21.45c.69-.97,1.46-2.62,1.96-3.78-.09-.16-.2-.3-.31-.43-1.28.93-3.48,1.9-3.48,1.9,0,0-28.84-32.99-29.68-35.42-.58-1.7,5.41-14.61,9.08-22.24-.35-.57-.85-.7-1.41-.57-3.83,5.85-8.49,14.89-10.2,18.29-.32.63-1.18.72-1.61.16-2.79-3.56-10.9-14.04-12.14-17.03-1.03-2.48,3.41-10.74,6.28-15.65-.34-.23-.75-.34-1.26-.21-2.91,3.27-5.75,7.19-7.53,9.77-.94,1.37-2.92,1.44-3.98.17l-20.8-24.96c-.88-.28-1.45-.07-1.33,1.05,6.27,8.66,12.92,17.83,16.54,22.83,1.15,1.59.16,3.81-1.78,4.07-2.58.35-4.47.95-5.99,1.55-.01.18.02.34.1.49,6.2-.73,13.2,1.2,13.2,1.2,0,0,15.31,16.87,13.09,16.91-1.32.03-3.79,1.62-10.88,3.52-1.38.27-4.35,1.37-6.93,2.36.03.16.11.34.25.52,1.6-.44,3.35-.93,4.88-1.34,8.09-1.56,15.15-.41,15.15-.41,0,0,34.33,33.9,34.56,36.8.23,2.9-6.09,5.16-3.15,4.55,2.95-.62,5.2-1.98,5.2-1.98l16.07,21.06c-1.51.79-3.48,1.06-6.1.26-3.31-1.09-7.22-2.43-9.38-3.36-4.19-1.82-13.11-4.02-12.67-7.8.44-3.76,1.21-5.39,1.21-5.39,0,0-22.99.38-28.59-2.38-5.59-2.75-5.52-1.79-8.87-2.56-3.35-.77-20.35-7.53-21.97-10.02-1.62-2.48-6.46-6.87-7.97-7.05-1.5-.18-14.47-7.04-18.01-27.52Z"/><path class="cls-5" d="m1085.68,509.77c-3.54-20.48-4.47-43.72-4.07-47.11.4-3.4,1.53-11.49,1.38-15.13-.15-3.66,2.38-13.01,1.52-17.98-.86-4.97.54-7.98,4.14-6.02,3.59,1.95,18.64,10.58,22.67,10.48,4.03-.11,28.69,4.68,31.16,8.21,2.45,3.54,6.77,4.23,8.4,5,1.63.76,14.29,8.54,15.75,10.81,1.45,2.27,10.65,8.7,13.23,11.1,2.59,2.41,29.44,31.15,9.09,74.66,0,0,15.78-2.55,14.69,11.66-.39,5.1-.71,8.93-.95,11.78-.01.12-.38,3.97-2.57,6.63l-16-21.45c.69-.97,1.46-2.62,1.96-3.78-.09-.16-.2-.3-.31-.43-1.28.93-3.48,1.9-3.48,1.9,0,0-28.84-32.99-29.68-35.42-.58-1.7,5.41-14.61,9.08-22.24-.35-.57-.85-.7-1.41-.57-3.83,5.85-8.49,14.89-10.2,18.29-.32.63-1.18.72-1.61.16-2.79-3.56-10.9-14.04-12.14-17.03-1.03-2.48,3.41-10.74,6.28-15.65-.34-.23-.75-.34-1.26-.21-2.91,3.27-5.75,7.19-7.53,9.77-.94,1.37-2.92,1.44-3.98.17l-20.8-24.96c-.88-.28-1.45-.07-1.33,1.05,6.27,8.66,12.92,17.83,16.54,22.83,1.15,1.59.16,3.81-1.78,4.07-2.58.35-4.47.95-5.99,1.55-.01.18.02.34.1.49,6.2-.73,13.2,1.2,13.2,1.2,0,0,15.31,16.87,13.09,16.91-1.32.03-3.79,1.62-10.88,3.52-1.38.27-4.35,1.37-6.93,2.36.03.16.11.34.25.52,1.6-.44,3.35-.93,4.88-1.34,8.09-1.56,15.15-.41,15.15-.41,0,0,34.33,33.9,34.56,36.8.23,2.9-6.09,5.16-3.15,4.55,2.95-.62,5.2-1.98,5.2-1.98l16.07,21.06c-1.51.79-3.48,1.06-6.1.26-3.31-1.09-7.22-2.43-9.38-3.36-4.19-1.82-13.11-4.02-12.67-7.8.44-3.76,1.21-5.39,1.21-5.39,0,0-22.99.38-28.59-2.38-5.59-2.75-5.52-1.79-8.87-2.56-3.35-.77-20.35-7.53-21.97-10.02-1.62-2.48-6.46-6.87-7.97-7.05-1.5-.18-14.47-7.04-18.01-27.52Z"/><path class="cls-5" d="m1092.62,662.46c3.54-20.48,4.47-43.72,4.07-47.11-.4-3.4-1.53-11.49-1.38-15.13.15-3.66-2.38-13.01-1.52-17.98.86-4.97-.54-7.98-4.14-6.02-3.59,1.95-18.64,10.58-22.67,10.48-4.03-.11-28.69,4.68-31.16,8.21-2.45,3.54-6.77,4.23-8.4,5-1.63.76-14.29,8.54-15.75,10.81-1.45,2.27-10.65,8.7-13.23,11.1-2.59,2.41-29.44,31.15-9.09,74.66,0,0-15.78-2.55-14.69,11.66.39,5.1.71,8.93.95,11.78.01.12.38,3.97,2.57,6.63l16-21.45c-.69-.97-1.46-2.62-1.96-3.78.09-.16.2-.3.31-.43,1.28.93,3.48,1.9,3.48,1.9,0,0,28.84-32.99,29.68-35.42.58-1.7-5.41-14.61-9.08-22.24.35-.57.85-.7,1.41-.57,3.83,5.85,8.49,14.89,10.2,18.29.32.63,1.18.72,1.61.16,2.79-3.56,10.9-14.04,12.14-17.03,1.03-2.48-3.41-10.74-6.28-15.65.34-.23.75-.34,1.26-.21,2.91,3.27,5.75,7.19,7.53,9.77.94,1.37,2.92,1.44,3.98.17l20.8-24.96c.88-.28,1.45-.07,1.33,1.05-6.27,8.66-12.92,17.83-16.54,22.83-1.15,1.59-.16,3.81,1.78,4.07,2.58.35,4.47.95,5.99,1.55.01.18-.02.34-.1.49-6.2-.73-13.2,1.2-13.2,1.2,0,0-15.31,16.87-13.09,16.91,1.32.03,3.79,1.62,10.88,3.52,1.38.27,4.35,1.37,6.93,2.36-.03.16-.11.34-.25.52-1.6-.44-3.35-.93-4.88-1.34-8.09-1.56-15.15-.41-15.15-.41,0,0-34.33,33.9-34.56,36.8-.23,2.9,6.09,5.16,3.15,4.55-2.95-.62-5.2-1.98-5.2-1.98l-16.07,21.06c1.51.79,3.48,1.06,6.1.26,3.31-1.09,7.22-2.43,9.38-3.36,4.19-1.82,13.11-4.02,12.67-7.8-.44-3.76-1.21-5.39-1.21-5.39,0,0,22.99.38,28.59-2.38,5.59-2.75,5.52-1.79,8.87-2.56,3.35-.77,20.35-7.53,21.97-10.02,1.62-2.48,6.46-6.87,7.97-7.05,1.5-.18,14.47-7.04,18.01-27.52Z"/><path class="cls-5" d="m1276.59,662.46c3.54-20.48,4.47-43.72,4.07-47.11-.4-3.4-1.53-11.49-1.38-15.13.15-3.66-2.38-13.01-1.52-17.98.86-4.97-.54-7.98-4.14-6.02-3.59,1.95-18.64,10.58-22.67,10.48-4.03-.11-28.69,4.68-31.16,8.21-2.45,3.54-6.77,4.23-8.4,5-1.63.76-14.29,8.54-15.75,10.81-1.45,2.27-10.65,8.7-13.23,11.1-2.59,2.41-29.44,31.15-9.09,74.66,0,0-15.78-2.55-14.69,11.66.39,5.1.71,8.93.95,11.78.01.12.38,3.97,2.57,6.63l16-21.45c-.69-.97-1.46-2.62-1.96-3.78.09-.16.2-.3.31-.43,1.28.93,3.48,1.9,3.48,1.9,0,0,28.84-32.99,29.68-35.42.58-1.7-5.41-14.61-9.08-22.24.35-.57.85-.7,1.41-.57,3.83,5.85,8.49,14.89,10.2,18.29.32.63,1.18.72,1.61.16,2.79-3.56,10.9-14.04,12.14-17.03,1.03-2.48-3.41-10.74-6.28-15.65.34-.23.75-.34,1.26-.21,2.91,3.27,5.75,7.19,7.53,9.77.94,1.37,2.92,1.44,3.98.17l20.8-24.96c.88-.28,1.45-.07,1.33,1.05-6.27,8.66-12.92,17.83-16.54,22.83-1.15,1.59-.16,3.81,1.78,4.07,2.58.35,4.47.95,5.99,1.55.01.18-.02.34-.1.49-6.2-.73-13.2,1.2-13.2,1.2,0,0-15.31,16.87-13.09,16.91,1.32.03,3.79,1.62,10.88,3.52,1.38.27,4.35,1.37,6.93,2.36-.03.16-.11.34-.25.52-1.6-.44-3.35-.93-4.88-1.34-8.09-1.56-15.15-.41-15.15-.41,0,0-34.33,33.9-34.56,36.8-.23,2.9,6.09,5.16,3.15,4.55-2.95-.62-5.2-1.98-5.2-1.98l-16.07,21.06c1.51.79,3.48,1.06,6.1.26,3.31-1.09,7.22-2.43,9.38-3.36,4.19-1.82,13.11-4.02,12.67-7.8-.44-3.76-1.21-5.39-1.21-5.39,0,0,22.99.38,28.59-2.38,5.59-2.75,5.52-1.79,8.87-2.56,3.35-.77,20.35-7.53,21.97-10.02,1.62-2.48,6.46-6.87,7.97-7.05,1.5-.18,14.47-7.04,18.01-27.52Z"/></g></g></g></g></g></svg>