<svg width="25" height="24" viewBox="0 0 25 24" fill="none" xmlns="http://www.w3.org/2000/svg">
<path d="M12.8887 6C11.702 6 10.5419 6.35189 9.55525 7.01118C8.56856 7.67047 7.79952 8.60754 7.3454 9.7039C6.89127 10.8003 6.77245 12.0067 7.00396 13.1705C7.23547 14.3344 7.80692 15.4035 8.64603 16.2426C9.48515 17.0818 10.5542 17.6532 11.7181 17.8847C12.882 18.1162 14.0884 17.9974 15.1848 17.5433C16.2811 17.0892 17.2182 16.3201 17.8775 15.3334C18.5368 14.3467 18.8887 13.1867 18.8887 12C18.8887 10.4087 18.2565 8.88258 17.1313 7.75736C16.0061 6.63214 14.48 6 12.8887 6ZM12.8887 15.6C12.1767 15.6 11.4806 15.3889 10.8886 14.9933C10.2966 14.5977 9.83518 14.0355 9.56271 13.3777C9.29023 12.7198 9.21894 11.996 9.35785 11.2977C9.49675 10.5993 9.83962 9.95788 10.3431 9.45442C10.8466 8.95095 11.488 8.60808 12.1863 8.46917C12.8847 8.33027 13.6085 8.40156 14.2663 8.67403C14.9241 8.94651 15.4864 9.40793 15.882 9.99995C16.2775 10.592 16.4887 11.288 16.4887 12C16.4887 12.9548 16.1094 13.8705 15.4343 14.5456C14.7591 15.2207 13.8435 15.6 12.8887 15.6ZM18.8887 4.8C18.6513 4.8 18.4193 4.87038 18.222 5.00224C18.0246 5.13409 17.8708 5.32151 17.78 5.54078C17.6892 5.76005 17.6654 6.00133 17.7117 6.23411C17.758 6.46689 17.8723 6.68071 18.0401 6.84853C18.208 7.01635 18.4218 7.13064 18.6546 7.17694C18.8873 7.22325 19.1286 7.19948 19.3479 7.10866C19.5672 7.01783 19.7546 6.86402 19.8864 6.66668C20.0183 6.46935 20.0887 6.23734 20.0887 6C20.0887 5.68174 19.9622 5.37652 19.7372 5.15147C19.5122 4.92643 19.2069 4.8 18.8887 4.8ZM24.8167 7.488C24.7968 6.46251 24.602 5.44794 24.2407 4.488C23.9056 3.61448 23.3906 2.82119 22.729 2.15964C22.0675 1.49808 21.2742 0.98306 20.4007 0.648C19.4407 0.286679 18.4262 0.0918812 17.4007 0.0719999C16.2367 -6.70552e-08 15.8527 0 12.8887 0C9.92467 0 9.54067 -6.70552e-08 8.37667 0.0719999C7.35118 0.0918812 6.33661 0.286679 5.37667 0.648C4.50315 0.98306 3.70986 1.49808 3.04831 2.15964C2.38676 2.82119 1.87173 3.61448 1.53667 4.488C1.17535 5.44794 0.980553 6.46251 0.960672 7.488C0.888672 8.664 0.888672 9.048 0.888672 12C0.888672 14.952 0.888672 15.336 0.960672 16.512C0.980553 17.5375 1.17535 18.5521 1.53667 19.512C1.87173 20.3855 2.38676 21.1788 3.04831 21.8404C3.70986 22.5019 4.50315 23.0169 5.37667 23.352C6.33661 23.7133 7.35118 23.9081 8.37667 23.928C9.57667 23.928 9.92467 24 12.8887 24C15.8527 24 16.2367 24 17.4007 23.928C18.4262 23.9081 19.4407 23.7133 20.4007 23.352C21.2742 23.0169 22.0675 22.5019 22.729 21.8404C23.3906 21.1788 23.9056 20.3855 24.2407 19.512C24.602 18.5521 24.7968 17.5375 24.8167 16.512C24.8167 15.312 24.8887 14.952 24.8887 12C24.8887 9.048 24.8887 8.664 24.8167 7.488ZM22.4167 16.404C22.3956 17.1655 22.2539 17.9189 21.9967 18.636C21.784 19.2028 21.4479 19.7152 21.0127 20.136C20.5944 20.5714 20.081 20.9041 19.5127 21.108C18.7939 21.3757 18.0355 21.5217 17.2687 21.54C16.1407 21.54 15.7927 21.6 12.8767 21.6C9.96067 21.6 9.62467 21.6 8.49667 21.6C7.7311 21.5802 6.97357 21.4385 6.25267 21.18C5.68586 20.9673 5.17348 20.6312 4.75267 20.196C4.31726 19.7777 3.98457 19.2643 3.78067 18.696C3.51404 17.9811 3.36805 17.2268 3.34867 16.464C3.34867 15.264 3.34867 14.964 3.34867 12.06C3.34867 9.156 3.34867 8.808 3.34867 7.656C3.36936 6.88945 3.51528 6.13144 3.78067 5.412C3.98774 4.84876 4.32011 4.33994 4.75267 3.924C5.17096 3.48859 5.68436 3.1559 6.25267 2.952C6.97146 2.68428 7.72986 2.53827 8.49667 2.52C9.62467 2.4 9.97267 2.4 12.8887 2.4C15.8047 2.4 16.1527 2.4 17.2807 2.4C18.0512 2.41959 18.8134 2.56553 19.5367 2.832C20.0999 3.03907 20.6087 3.37144 21.0247 3.804C21.4601 4.22229 21.7928 4.73569 21.9967 5.304C22.2904 6.03428 22.4568 6.8095 22.4887 7.596C22.4887 8.796 22.5487 9.096 22.5487 12C22.5487 14.904 22.4887 15.252 22.4887 16.404H22.4167Z" fill="#3E3E51"/>
</svg>
