<svg width="26" height="26" viewBox="0 0 26 26" fill="none" xmlns="http://www.w3.org/2000/svg">
<path d="M21.6808 9.97454C21.5695 9.81416 21.4193 9.68286 21.2436 9.59219C21.0679 9.50152 20.872 9.45425 20.6731 9.45455H17.0305V7.09091H19.7017C20.0237 7.09091 20.3326 6.9664 20.5603 6.74476C20.788 6.52313 20.9159 6.22253 20.9159 5.90909V1.18182C20.9159 0.86838 20.788 0.56778 20.5603 0.346146C20.3326 0.124513 20.0237 0 19.7017 0H15.8163C13.9486 0 12.1574 0.722173 10.8367 2.00765C9.51601 3.29313 8.77406 5.03661 8.77406 6.85455V9.45455H6.10286C5.78083 9.45455 5.472 9.57906 5.2443 9.80069C5.01659 10.0223 4.88867 10.3229 4.88867 10.6364V15.3636C4.88867 15.6771 5.01659 15.9777 5.2443 16.1993C5.472 16.4209 5.78083 16.5455 6.10286 16.5455H8.77406V24.8182C8.77406 25.1316 8.90198 25.4322 9.12969 25.6539C9.35739 25.8755 9.66622 26 9.98825 26H15.8163C16.1384 26 16.4472 25.8755 16.6749 25.6539C16.9026 25.4322 17.0305 25.1316 17.0305 24.8182V16.5455H18.7304C18.9735 16.5457 19.2112 16.4748 19.4125 16.3421C19.6139 16.2093 19.7696 16.0208 19.8596 15.8009L21.8023 11.0736C21.8756 10.8947 21.9029 10.701 21.8817 10.5094C21.8605 10.3179 21.7916 10.1342 21.6808 9.97454V9.97454ZM17.9047 14.1818H15.8163C15.4943 14.1818 15.1855 14.3063 14.9578 14.528C14.7301 14.7496 14.6021 15.0502 14.6021 15.3636V23.6364H11.2024V15.3636C11.2024 15.0502 11.0745 14.7496 10.8468 14.528C10.6191 14.3063 10.3103 14.1818 9.98825 14.1818H7.31704V11.8182H9.98825C10.3103 11.8182 10.6191 11.6937 10.8468 11.472C11.0745 11.2504 11.2024 10.9498 11.2024 10.6364V6.85455C11.2056 5.66444 11.6928 4.52397 12.5574 3.68244C13.4219 2.84091 14.5936 2.36676 15.8163 2.36364H18.4875V4.72727H17.5162C17.1051 4.66898 16.6861 4.69344 16.2851 4.79915C15.8841 4.90486 15.5096 5.08956 15.185 5.34182C14.9879 5.54261 14.8347 5.78015 14.7345 6.04014C14.6344 6.30012 14.5893 6.57716 14.6021 6.85455V10.6364C14.6021 10.9498 14.7301 11.2504 14.9578 11.472C15.1855 11.6937 15.4943 11.8182 15.8163 11.8182H18.8761L17.9047 14.1818Z" fill="#3E3E51"/>
</svg>
