<svg width="104" height="48" viewBox="0 0 104 48" fill="none" xmlns="http://www.w3.org/2000/svg">
<path d="M10.9464 22.9477C10.8366 22.6415 10.7827 22.1465 10.7654 21.561C9.138 21.4975 6.91746 22.0675 5.41912 22.4855C2.19518 23.3849 1.70986 28.423 0.766173 31.0075C-0.177511 33.594 0.00159631 38.0813 0.656398 39.8473C1.3112 41.6114 1.97563 40.402 2.80569 39.1925C3.63574 37.9831 4.16344 36.4154 4.38491 35.8107C4.60639 35.2059 4.85483 34.9594 5.96029 33.8058C7.06575 32.6522 6.87894 30.8072 8.11921 30.1216C9.03786 29.6151 10.7153 27.331 11.5261 26.1793C11.4221 25.7479 11.3508 25.4032 11.3297 25.2222C11.2334 24.3709 11.4683 24.4152 10.9426 22.9496L10.9464 22.9477Z" fill="#3E3E51"/>
<path d="M28.3063 10.0249C29.0189 9.54341 29.9048 8.86357 30.3458 8.21455C31.1489 7.03206 32.0599 6.12689 32.9959 6.01904C33.9318 5.91119 34.8158 5.41816 35.3127 4.81536C35.8096 4.21063 40.164 3.01273 41.2964 1.99779C42.4289 0.982845 41.7972 0.512929 40.6956 0.343451C39.5939 0.173973 34.3632 -0.336387 32.0214 0.343451C29.6795 1.02521 24.0867 1.6415 23.2489 5.21787C22.7771 7.23812 22.5248 8.4938 22.3977 9.20445C24.6548 9.10623 26.6289 9.45675 28.3063 10.023V10.0249Z" fill="#3E3E51"/>
<path d="M34.2823 42.2912C34.0666 42.1159 33.7854 41.5767 33.5582 41.0798C33.5139 41.0798 33.4696 41.0798 33.4311 41.0798C32.9303 41.0798 30.7387 40.7774 28.0058 40.2305C27.2374 44.2382 30.9833 47.285 31.8075 47.7973C32.6742 48.3365 32.7166 47.7992 34.1667 46.193C35.6169 44.5868 34.7156 42.6417 34.2823 42.2892V42.2912Z" fill="#3E3E51"/>
<path d="M48.037 31.1095C47.3167 30.0022 45.0692 26.5856 41.8491 27.3098C42.2651 29.4552 42.4789 32.7485 42.3807 33.4495C42.3576 33.617 42.3864 33.8713 42.4538 34.1775C43.411 34.6493 44.7591 35.0576 45.7336 34.3027C47.4111 33.0065 48.817 32.3094 48.0351 31.1095H48.037Z" fill="#3E3E51"/>
<path d="M41.4969 34.3006C41.4295 33.9925 41.4006 33.7402 41.4237 33.5726C41.5219 32.8735 41.3082 29.5803 40.8922 27.4329C40.715 26.5239 40.5031 25.8171 40.2624 25.6072C39.4516 24.9004 39.4015 23.8084 39.2571 23.3808C39.1126 22.9552 37.5392 19.5926 37.0153 19.167C36.4915 18.7433 35.1549 16.2782 34.633 15.5714C34.323 15.1515 31.9811 12.384 27.7807 10.9666C26.1033 10.4004 24.1312 10.0499 21.8721 10.1481C20.1908 10.2213 18.3497 10.5448 16.3564 11.2169C16.3564 11.2169 17.4349 7.37287 13.8758 7.24191C12.599 7.19569 11.6379 7.1668 10.9254 7.14754C10.9003 7.14754 10.2513 7.13599 9.61961 7.38828C9.6042 7.39213 9.58494 7.39406 9.57146 7.40176C9.54257 7.41524 9.51754 7.43065 9.49058 7.44413C9.39428 7.48842 9.29991 7.54042 9.2094 7.5982L9.21517 7.60398C8.77992 7.89093 8.63356 8.17211 8.58733 8.31078C8.44097 8.63433 8.38512 9.04647 8.48334 9.57801C8.66052 10.4293 8.88199 11.4403 9.0534 12.0008C9.3885 13.0908 9.68316 15.3672 10.6326 15.3634C11.5782 15.3595 12.0058 15.2151 12.0058 15.2151C12.0058 15.2151 11.5436 18.776 11.6091 20.9927C11.6264 21.5782 11.6803 22.0712 11.7901 22.3794C12.3159 23.845 12.079 23.8007 12.1772 24.6519C12.1984 24.833 12.2696 25.1777 12.3736 25.6091C12.7588 27.2057 13.5966 30.0155 14.0453 30.3872C14.6173 30.8591 15.5687 32.1841 15.5706 32.5635C15.5706 32.9409 16.911 36.3536 21.8952 37.8077C23.9501 38.4085 26.1322 38.9112 28.0503 39.2944C30.7832 39.8414 32.9748 40.1457 33.4756 40.1438C33.5141 40.1438 33.5584 40.1438 33.6027 40.1438C34.5175 40.138 36.4106 40.0956 37.2696 40.2266C38.1728 40.3652 40.5667 40.0012 41.7761 40.3537C42.9875 40.7061 43.7714 40.4442 43.3862 39.4947C43.0684 38.707 41.8262 35.8221 41.4969 34.3006V34.3006ZM34.0129 33.64C32.0408 31.8393 29.9493 29.9308 28.8111 28.8927C28.449 28.5634 27.8693 28.7425 27.7499 29.2163C27.592 29.848 27.3878 30.3025 27.1953 30.6626C27.151 30.6626 27.1105 30.6472 27.0758 30.6222C27.4321 29.1046 27.151 27.3116 27.151 27.3116C27.151 27.3116 23.3955 23.038 23.3223 23.5869C23.278 23.9124 22.8139 24.4824 22.1417 26.1888C22.0358 26.5239 21.6795 27.2307 21.3598 27.8431C21.3194 27.8316 21.2789 27.8065 21.2366 27.7661C21.3906 27.3809 21.5601 26.9591 21.7065 26.5913C22.3228 24.6269 22.2342 22.8416 22.2342 22.8416C22.2342 22.8416 14.7848 13.3682 14.0723 13.2276C13.3597 13.0889 12.6201 14.5949 12.8532 13.8824C12.9552 13.5723 13.0901 13.2988 13.2095 13.0889C13.2152 13.0812 13.2249 13.0773 13.2306 13.0696C13.8662 12.1626 14.4189 12.0277 14.4189 12.0277C14.4189 12.0277 14.4151 12.0239 14.4151 12.022C14.6365 11.9334 14.8831 11.8506 15.0776 11.7909C15.1142 11.8178 15.145 11.8486 15.1758 11.8794C15.0545 12.0123 14.9274 12.1895 14.8234 12.3455C14.6924 12.5439 14.7117 12.8039 14.8715 12.9791C16.1946 14.4255 22.0512 20.8079 22.5635 21.0524C22.9679 21.245 26.3421 20.1203 28.3392 19.4251C28.4721 19.5291 28.4894 19.6562 28.4394 19.791C26.8813 20.5787 24.5048 21.4781 23.6131 21.8093C23.4475 21.8709 23.4032 22.0809 23.5284 22.206C24.3334 22.9976 26.7061 25.3087 27.4148 25.6977C28.0022 26.0232 30.1765 25.1527 31.4746 24.5787C31.5227 24.6693 31.5362 24.7752 31.4919 24.8965C30.6002 25.5263 29.5468 26.1214 28.8573 26.4892C28.4914 26.6837 28.4143 27.1748 28.7013 27.4733L34.3114 33.3377C34.3557 33.563 34.2883 33.6997 34.0129 33.64V33.64Z" fill="#3E3E51"/>
<path d="M58.1967 18.3464C58.1399 18.2896 58.1106 18.22 58.1106 18.1375V1.56207C58.1106 1.48145 58.1381 1.41183 58.1967 1.3532C58.2553 1.29457 58.3231 1.26709 58.4056 1.26709H61.2747C61.3572 1.26709 61.425 1.2964 61.4836 1.3532C61.5404 1.41 61.5697 1.47962 61.5697 1.56207V7.7419C61.5697 7.80786 61.5898 7.8445 61.6302 7.85183C61.6705 7.86099 61.6998 7.83168 61.7163 7.76572L64.8786 1.48878C64.9592 1.34221 65.0746 1.26892 65.2212 1.26892H68.2607C68.3743 1.26892 68.4531 1.29824 68.4934 1.35503C68.5337 1.41183 68.53 1.49794 68.4806 1.61153L64.8511 8.67263C64.8346 8.73859 64.8273 8.78806 64.8273 8.8192L68.6766 18.088C68.6931 18.121 68.7004 18.1705 68.7004 18.2346C68.7004 18.3647 68.618 18.4307 68.4549 18.4307H65.3897C65.2102 18.4307 65.0947 18.3574 65.0471 18.2108L62.4968 11.7873C62.4803 11.7378 62.4565 11.7177 62.4235 11.7268C62.3905 11.736 62.3575 11.7561 62.3245 11.7873L61.6137 13.0625C61.5807 13.1284 61.5642 13.1761 61.5642 13.209V18.1375C61.5642 18.22 61.5349 18.2896 61.4781 18.3464C61.4213 18.4032 61.3517 18.4325 61.2692 18.4325H58.4001C58.3176 18.4325 58.248 18.405 58.1912 18.3464H58.1967Z" fill="#3E3E51"/>
<path d="M77.5385 18.1613L77.1464 15.807C77.1464 15.7246 77.0969 15.6843 76.9998 15.6843H73.8852C73.7863 15.6843 73.7386 15.7246 73.7386 15.807L73.3465 18.1613C73.33 18.3409 73.2238 18.4307 73.0277 18.4307H70.1586C69.9461 18.4307 69.8636 18.3244 69.9131 18.1119L73.5169 1.53642C73.5499 1.35687 73.6562 1.26709 73.8357 1.26709H77.1464C77.326 1.26709 77.4322 1.35687 77.4652 1.53642L81.0452 18.1119L81.069 18.2108C81.069 18.3574 80.9793 18.4307 80.7997 18.4307H77.8573C77.6612 18.4307 77.555 18.3409 77.5385 18.1613V18.1613ZM74.3267 13.013H76.5326C76.6133 13.013 76.6462 12.9727 76.6316 12.8902L75.4792 6.1974C75.4627 6.14793 75.4389 6.12411 75.4059 6.12411C75.3729 6.12411 75.3491 6.14793 75.3326 6.1974L74.2296 12.8902C74.2296 12.9727 74.2626 13.013 74.3286 13.013H74.3267Z" fill="#3E3E51"/>
<path d="M90.5541 1.26892H93.3976C93.4783 1.26892 93.5479 1.29824 93.6065 1.35503C93.6633 1.41183 93.6926 1.48145 93.6926 1.5639V18.1375C93.6926 18.22 93.6633 18.2896 93.6065 18.3464C93.5497 18.4032 93.4801 18.4325 93.3976 18.4325H90.5285C90.446 18.4325 90.3764 18.405 90.3196 18.3464C90.2628 18.2896 90.2335 18.22 90.2335 18.1375V7.12813C90.2335 7.06217 90.217 7.02919 90.184 7.02919C90.1511 7.02919 90.1181 7.05301 90.0851 7.10248L88.1724 10.4865C88.0899 10.6165 88.0258 10.6825 87.9763 10.6825C87.9268 10.6825 87.8627 10.6165 87.7803 10.4865L85.8675 7.10248C85.8345 7.05301 85.8016 7.02919 85.7686 7.02919C85.7356 7.02919 85.7191 7.06217 85.7191 7.12813V18.1375C85.7191 18.22 85.6898 18.2896 85.633 18.3464C85.5762 18.4032 85.5066 18.4325 85.4241 18.4325H82.555C82.4725 18.4325 82.4029 18.405 82.3461 18.3464C82.2893 18.2896 82.26 18.22 82.26 18.1375V1.56207C82.26 1.48145 82.2875 1.41183 82.3461 1.3532C82.4029 1.2964 82.4725 1.26709 82.555 1.26709H85.3747C85.5377 1.26709 85.6605 1.33305 85.7429 1.46313L87.925 5.36194C87.9745 5.4279 88.0239 5.4279 88.0716 5.36194L90.1804 1.46313C90.2463 1.33305 90.3691 1.26709 90.5487 1.26709L90.5541 1.26892Z" fill="#3E3E51"/>
<path d="M103.803 4.14906C103.746 4.20585 103.676 4.23517 103.594 4.23517H98.4692C98.3867 4.23517 98.3464 4.27548 98.3464 4.35792V8.23292C98.3464 8.31536 98.3867 8.35567 98.4692 8.35567H101.412C101.494 8.35567 101.562 8.38498 101.62 8.44178C101.677 8.49858 101.707 8.5682 101.707 8.65064V11.0288C101.707 11.1112 101.677 11.1808 101.62 11.2376C101.564 11.2944 101.494 11.3237 101.412 11.3237H98.4692C98.3867 11.3237 98.3464 11.3641 98.3464 11.4465V15.3453C98.3464 15.4278 98.3867 15.4681 98.4692 15.4681H103.594C103.676 15.4681 103.744 15.4974 103.803 15.5542C103.859 15.611 103.889 15.6806 103.889 15.763V18.1412C103.889 18.2236 103.859 18.2932 103.803 18.35C103.746 18.4068 103.676 18.4361 103.594 18.4361H95.1841C95.1017 18.4361 95.0321 18.4087 94.9753 18.35C94.9185 18.2932 94.8892 18.2236 94.8892 18.1412V1.56207C94.8892 1.48145 94.9166 1.41183 94.9753 1.3532C95.0339 1.29457 95.1017 1.26709 95.1841 1.26709H103.594C103.676 1.26709 103.744 1.2964 103.803 1.3532C103.859 1.41 103.889 1.47962 103.889 1.56207V3.94019C103.889 4.02264 103.859 4.09226 103.803 4.14906Z" fill="#3E3E51"/>
<path d="M59.7247 45.1024C58.6896 44.0471 58.1729 42.6675 58.1729 40.9618V40.13C58.1729 39.9175 58.2792 39.8112 58.4935 39.8112H60.8607C61.0732 39.8112 61.1813 39.9175 61.1813 40.13V40.8024C61.1813 41.7826 61.4268 42.5667 61.916 43.153C62.4052 43.7393 63.0354 44.0325 63.8031 44.0325C64.5708 44.0325 65.2047 43.7503 65.7049 43.1842C66.205 42.6199 66.456 41.8779 66.456 40.9618C66.456 40.3443 66.3223 39.8002 66.0566 39.3312C65.7891 38.8621 65.4374 38.4407 65.0013 38.0688C64.5634 37.6951 63.8544 37.1473 62.8742 36.4217C61.7877 35.6119 60.9339 34.9194 60.3165 34.3422C59.6972 33.7669 59.1751 33.0744 58.75 32.2627C58.3231 31.4529 58.1106 30.5039 58.1106 29.4174C58.1106 27.6897 58.6218 26.3211 59.6459 25.3079C60.6683 24.2966 62.0021 23.7891 63.6437 23.7891C65.2853 23.7891 66.718 24.3332 67.7532 25.4197C68.7865 26.5061 69.3032 27.9352 69.3032 29.7051V30.5039C69.3032 30.7164 69.1969 30.8227 68.9844 30.8227H66.6173C66.4029 30.8227 66.2966 30.7164 66.2966 30.5039V29.6409C66.2966 28.6809 66.0511 27.9096 65.5619 27.3233C65.0709 26.737 64.4315 26.4438 63.6437 26.4438C62.898 26.4438 62.2897 26.7058 61.8207 27.228C61.3517 27.7502 61.1172 28.4812 61.1172 29.4193C61.1172 30.2712 61.3517 30.9912 61.8207 31.5775C62.2897 32.1638 63.1966 32.948 64.5396 33.9282C65.8184 34.8882 66.7822 35.665 67.4326 36.2623C68.083 36.8596 68.5832 37.5155 68.9349 38.2282C69.2867 38.9428 69.4626 39.791 69.4626 40.7712C69.4626 42.5612 68.9404 43.9958 67.8961 45.0731C66.8518 46.1504 65.4868 46.6872 63.8031 46.6872C62.1193 46.6872 60.7599 46.1596 59.7266 45.1043L59.7247 45.1024Z" fill="#3E3E51"/>
<path d="M72.0476 46.3667V24.1098C72.0476 23.8973 72.1539 23.791 72.3682 23.791H74.7977C75.0102 23.791 75.1165 23.8973 75.1165 24.1098V46.3667C75.1165 46.5811 75.0102 46.6874 74.7977 46.6874H72.3682C72.1539 46.6874 72.0476 46.5811 72.0476 46.3667Z" fill="#3E3E51"/>
<path d="M79.2866 45.15C78.2313 44.1258 77.7036 42.7737 77.7036 41.0881V29.3843C77.7036 27.7006 78.2313 26.3466 79.2866 25.3224C80.3419 24.2983 81.7325 23.7871 83.4602 23.7871C85.1879 23.7871 86.5822 24.2983 87.6485 25.3224C88.7148 26.3448 89.248 27.7097 89.248 29.4155V30.7584C89.248 30.971 89.1417 31.0772 88.9292 31.0772H86.4979C86.2854 31.0772 86.1791 30.971 86.1791 30.7584V29.3513C86.1791 28.4774 85.9281 27.7739 85.4279 27.2407C84.9259 26.7076 84.2719 26.4419 83.4621 26.4419C82.6522 26.4419 81.9963 26.7094 81.4962 27.2407C80.9942 27.7739 80.745 28.4774 80.745 29.3513V41.1192C80.745 41.9932 80.996 42.6967 81.4962 43.2299C81.9963 43.763 82.6522 44.0287 83.4621 44.0287C84.2719 44.0287 84.9278 43.763 85.4279 43.2299C85.9281 42.6967 86.1791 41.9932 86.1791 41.1192V37.6015C86.1791 37.5172 86.137 37.4733 86.0509 37.4733H83.6215C83.4071 37.4733 83.3008 37.367 83.3008 37.1545V35.1721C83.3008 34.9595 83.4071 34.8514 83.6215 34.8514H88.9292C89.1417 34.8514 89.248 34.9577 89.248 35.1721V41.0881C89.248 42.7718 88.7148 44.1258 87.6485 45.15C86.5822 46.1723 85.1861 46.6853 83.4602 46.6853C81.7343 46.6853 80.3419 46.1741 79.2866 45.15V45.15Z" fill="#3E3E51"/>
<path d="M101.17 23.8018H103.568C103.78 23.8018 103.889 23.9117 103.889 24.1279V46.3573C103.889 46.5754 103.782 46.6835 103.568 46.6835H100.818C100.647 46.6835 100.53 46.5973 100.466 46.4215L95.0301 31.4821C95.0081 31.4381 94.977 31.4217 94.9348 31.4327C94.8927 31.4436 94.8707 31.4711 94.8707 31.5151L94.9019 46.3573C94.9019 46.5754 94.7956 46.6835 94.5831 46.6835H92.1536C91.9393 46.6835 91.833 46.5754 91.833 46.3573V24.1297C91.833 23.9117 91.9393 23.8036 92.1536 23.8036H94.8707C95.0411 23.8036 95.1584 23.8915 95.2225 24.0656L100.691 39.0049C100.712 39.0709 100.745 39.0984 100.787 39.0874C100.829 39.0764 100.851 39.0379 100.851 38.9738V24.1297C100.851 23.9117 100.957 23.8036 101.171 23.8036L101.17 23.8018Z" fill="#3E3E51"/>
</svg>
