<svg width="104" height="48" viewBox="0 0 104 48" fill="none" xmlns="http://www.w3.org/2000/svg">
<path d="M10.8071 22.9689C10.6976 22.669 10.6438 22.1841 10.6265 21.6106C9.00332 21.5483 6.78846 22.1068 5.29395 22.5161C2.07827 23.3972 1.59419 28.3325 0.652925 30.8644C-0.288343 33.3981 -0.109694 37.7938 0.543431 39.5238C1.19656 41.252 1.85929 40.0672 2.68722 38.8824C3.51515 37.6976 4.04149 36.1619 4.2624 35.5695C4.48331 34.9771 4.73111 34.7357 5.83374 33.6056C6.93637 32.4755 6.75004 30.6681 7.98714 29.9965C8.90343 29.5003 10.5766 27.2628 11.3853 26.1346C11.2816 25.712 11.2105 25.3743 11.1894 25.197C11.0933 24.3631 11.3277 24.4065 10.8033 22.9708L10.8071 22.9689Z" fill="url(#paint0_linear_48_55)"/>
<path d="M28.1225 10.3098C28.8332 9.83819 29.7169 9.17222 30.1568 8.53644C30.9578 7.37807 31.8664 6.49136 32.8 6.38571C33.7336 6.28006 34.6153 5.79709 35.1109 5.20659C35.6065 4.6142 39.9498 3.44073 41.0793 2.44649C42.2089 1.45225 41.5788 0.991922 40.48 0.825901C39.3812 0.65988 34.1639 0.159931 31.828 0.825901C29.4921 1.49376 23.9137 2.09747 23.0781 5.60089C22.6074 7.57993 22.3558 8.81 22.229 9.50615C24.4804 9.40994 26.4493 9.7533 28.1225 10.308V10.3098Z" fill="url(#paint1_linear_48_55)"/>
<path d="M34.0836 41.918C33.8684 41.7463 33.588 41.218 33.3613 40.7313C33.3171 40.7313 33.273 40.7313 33.2345 40.7313C32.7351 40.7313 30.549 40.4351 27.8232 39.8993C27.0567 43.8253 30.793 46.8099 31.6152 47.3117C32.4796 47.84 32.5219 47.3136 33.9683 45.7402C35.4148 44.1668 34.5158 42.2613 34.0836 41.9161V41.918Z" fill="url(#paint2_linear_48_55)"/>
<path d="M47.8029 30.9643C47.0845 29.8796 44.8427 26.5327 41.6309 27.2421C42.0458 29.3438 42.259 32.5698 42.161 33.2566C42.138 33.4207 42.1668 33.6697 42.234 33.9697C43.1888 34.4319 44.5334 34.8319 45.5054 34.0923C47.1786 32.8227 48.5809 32.1397 47.801 30.9643H47.8029Z" fill="url(#paint3_linear_48_55)"/>
<path d="M41.2789 34.0904C41.2117 33.7886 41.1829 33.5414 41.2059 33.3773C41.3039 32.6925 41.0907 29.4664 40.6758 27.3628C40.499 26.4723 40.2877 25.78 40.0476 25.5743C39.2389 24.8819 39.1889 23.8122 39.0449 23.3934C38.9008 22.9765 37.3314 19.6825 36.8089 19.2655C36.2864 18.8505 34.9532 16.4356 34.4326 15.7433C34.1234 15.332 31.7875 12.6209 27.5979 11.2324C25.9247 10.6777 23.9577 10.3344 21.7044 10.4306C20.0274 10.5023 18.191 10.8192 16.2028 11.4776C16.2028 11.4776 17.2785 7.71199 13.7286 7.5837C12.455 7.53842 11.4964 7.51013 10.7857 7.49126C10.7607 7.49126 10.1133 7.47994 9.48327 7.72709C9.46791 7.73086 9.4487 7.73274 9.43525 7.74029C9.40643 7.7535 9.38146 7.76859 9.35457 7.7818C9.25852 7.82519 9.16439 7.87613 9.07411 7.93272L9.07987 7.93838C8.64574 8.21949 8.49974 8.49493 8.45364 8.63077C8.30765 8.94772 8.25194 9.35145 8.34991 9.87215C8.52664 10.706 8.74755 11.6965 8.91851 12.2455C9.25276 13.3133 9.54667 15.5433 10.4937 15.5395C11.4369 15.5357 11.8633 15.3942 11.8633 15.3942C11.8633 15.3942 11.4023 18.8826 11.4676 21.054C11.4849 21.6276 11.5387 22.1105 11.6482 22.4124C12.1726 23.8481 11.9363 23.8047 12.0343 24.6386C12.0554 24.8159 12.1265 25.1536 12.2302 25.5762C12.6144 27.1402 13.45 29.8928 13.8976 30.2569C14.4682 30.7191 15.4171 32.0171 15.419 32.3887C15.419 32.7585 16.756 36.1016 21.7274 37.5259C23.7771 38.1146 25.9536 38.607 27.8668 38.9824C30.5927 39.5182 32.7787 39.8163 33.2782 39.8144C33.3166 39.8144 33.3608 39.8144 33.4049 39.8144C34.3174 39.8087 36.2057 39.7672 37.0624 39.8955C37.9634 40.0313 40.3511 39.6748 41.5575 40.02C42.7658 40.3653 43.5476 40.1087 43.1634 39.1786C42.8464 38.407 41.6074 35.5809 41.2789 34.0904V34.0904ZM33.8141 33.4433C31.847 31.6794 29.7609 29.8097 28.6256 28.7929C28.2645 28.4703 27.6862 28.6457 27.5672 29.1098C27.4096 29.7286 27.206 30.1739 27.0139 30.5267C26.9697 30.5267 26.9294 30.5116 26.8948 30.487C27.2502 29.0004 26.9697 27.244 26.9697 27.244C26.9697 27.244 23.2239 23.0576 23.1509 23.5953C23.1067 23.9141 22.6437 24.4726 21.9733 26.1441C21.8677 26.4723 21.5123 27.1647 21.1934 27.7647C21.1531 27.7534 21.1127 27.7288 21.0705 27.6892C21.2242 27.3119 21.3932 26.8987 21.5392 26.5384C22.1539 24.614 22.0655 22.8652 22.0655 22.8652C22.0655 22.8652 14.6353 13.585 13.9245 13.4473C13.2138 13.3114 12.4761 14.7867 12.7086 14.0887C12.8104 13.785 12.9448 13.5171 13.0639 13.3114C13.0697 13.3039 13.0793 13.3001 13.0851 13.2926C13.719 12.404 14.2703 12.2719 14.2703 12.2719C14.2703 12.2719 14.2665 12.2681 14.2665 12.2662C14.4874 12.1795 14.7332 12.0983 14.9273 12.0399C14.9638 12.0663 14.9945 12.0965 15.0252 12.1266C14.9042 12.2568 14.7774 12.4304 14.6737 12.5832C14.5431 12.7775 14.5623 13.0322 14.7217 13.2039C16.0414 14.6207 21.883 20.8729 22.394 21.1125C22.7974 21.3012 26.1629 20.1994 28.155 19.5183C28.2875 19.6202 28.3048 19.7447 28.2549 19.8768C26.7008 20.6484 24.3303 21.5295 23.4409 21.854C23.2757 21.9143 23.2316 22.12 23.3564 22.2426C24.1594 23.018 26.526 25.2819 27.2329 25.663C27.8188 25.9818 29.9876 25.1291 31.2823 24.5669C31.3303 24.6556 31.3438 24.7593 31.2996 24.8782C30.4102 25.4951 29.3594 26.078 28.6717 26.4384C28.3067 26.6289 28.2299 27.11 28.5161 27.4024L34.1118 33.1471C34.156 33.3679 34.0888 33.5018 33.8141 33.4433V33.4433Z" fill="url(#paint4_linear_48_55)"/>
<path d="M58.0851 18.3465C58.0283 18.2897 57.999 18.2201 57.999 18.1377V1.56223C57.999 1.48162 58.0265 1.412 58.0851 1.35337C58.1438 1.29474 58.2116 1.26726 58.294 1.26726H61.1631C61.2456 1.26726 61.3134 1.29657 61.372 1.35337C61.4288 1.41017 61.4581 1.47979 61.4581 1.56223V7.74207C61.4581 7.80803 61.4783 7.84467 61.5186 7.852C61.5589 7.86116 61.5882 7.83184 61.6047 7.76589L64.767 1.48895C64.8476 1.34238 64.963 1.26909 65.1096 1.26909H68.1491C68.2627 1.26909 68.3415 1.2984 68.3818 1.3552C68.4221 1.412 68.4184 1.49811 68.369 1.6117L64.7395 8.6728C64.723 8.73876 64.7157 8.78822 64.7157 8.81937L68.565 18.0882C68.5815 18.1212 68.5888 18.1707 68.5888 18.2348C68.5888 18.3649 68.5064 18.4308 68.3433 18.4308H65.2781C65.0986 18.4308 64.9832 18.3575 64.9355 18.211L62.3852 11.7875C62.3687 11.738 62.3449 11.7178 62.3119 11.727C62.2789 11.7361 62.2459 11.7563 62.213 11.7875L61.5021 13.0626C61.4691 13.1286 61.4526 13.1762 61.4526 13.2092V18.1377C61.4526 18.2201 61.4233 18.2897 61.3665 18.3465C61.3097 18.4033 61.2401 18.4327 61.1577 18.4327H58.2885C58.2061 18.4327 58.1364 18.4052 58.0796 18.3465H58.0851Z" fill="#303030"/>
<path d="M77.4269 18.1615L77.0348 15.8072C77.0348 15.7247 76.9854 15.6844 76.8883 15.6844H73.7736C73.6747 15.6844 73.627 15.7247 73.627 15.8072L73.235 18.1615C73.2185 18.341 73.1122 18.4308 72.9162 18.4308H70.047C69.8345 18.4308 69.7521 18.3246 69.8015 18.112L73.4054 1.53658C73.4383 1.35703 73.5446 1.26726 73.7242 1.26726H77.0348C77.2144 1.26726 77.3207 1.35703 77.3536 1.53658L80.9337 18.112L80.9575 18.211C80.9575 18.3575 80.8677 18.4308 80.6881 18.4308H77.7457C77.5497 18.4308 77.4434 18.341 77.4269 18.1615V18.1615ZM74.2152 13.0132H76.4211C76.5017 13.0132 76.5347 12.9729 76.52 12.8904L75.3676 6.19757C75.3511 6.1481 75.3273 6.12428 75.2943 6.12428C75.2613 6.12428 75.2375 6.1481 75.221 6.19757L74.1181 12.8904C74.1181 12.9729 74.151 13.0132 74.217 13.0132H74.2152Z" fill="#303030"/>
<path d="M90.4426 1.26909H93.2861C93.3667 1.26909 93.4363 1.2984 93.4949 1.3552C93.5517 1.412 93.581 1.48162 93.581 1.56407V18.1377C93.581 18.2201 93.5517 18.2897 93.4949 18.3465C93.4381 18.4033 93.3685 18.4327 93.2861 18.4327H90.4169C90.3345 18.4327 90.2649 18.4052 90.2081 18.3465C90.1513 18.2897 90.1219 18.2201 90.1219 18.1377V7.1283C90.1219 7.06234 90.1055 7.02936 90.0725 7.02936C90.0395 7.02936 90.0065 7.05318 89.9735 7.10265L88.0608 10.4866C87.9783 10.6167 87.9142 10.6827 87.8647 10.6827C87.8153 10.6827 87.7511 10.6167 87.6687 10.4866L85.7559 7.10265C85.723 7.05318 85.69 7.02936 85.657 7.02936C85.624 7.02936 85.6075 7.06234 85.6075 7.1283V18.1377C85.6075 18.2201 85.5782 18.2897 85.5214 18.3465C85.4646 18.4033 85.395 18.4327 85.3126 18.4327H82.4434C82.361 18.4327 82.2913 18.4052 82.2345 18.3465C82.1778 18.2897 82.1484 18.2201 82.1484 18.1377V1.56223C82.1484 1.48162 82.1759 1.412 82.2345 1.35337C82.2913 1.29657 82.361 1.26726 82.4434 1.26726H85.2631C85.4261 1.26726 85.5489 1.33321 85.6314 1.4633L87.8134 5.36211C87.8629 5.42807 87.9124 5.42807 87.96 5.36211L90.0688 1.4633C90.1348 1.33321 90.2575 1.26726 90.4371 1.26726L90.4426 1.26909Z" fill="#303030"/>
<path d="M103.691 4.14923C103.634 4.20602 103.564 4.23534 103.482 4.23534H98.3574C98.2749 4.23534 98.2346 4.27564 98.2346 4.35809V8.23308C98.2346 8.31553 98.2749 8.35584 98.3574 8.35584H101.3C101.382 8.35584 101.45 8.38515 101.509 8.44195C101.565 8.49874 101.595 8.56837 101.595 8.65081V11.0289C101.595 11.1114 101.565 11.181 101.509 11.2378C101.452 11.2946 101.382 11.3239 101.3 11.3239H98.3574C98.2749 11.3239 98.2346 11.3642 98.2346 11.4467V15.3455C98.2346 15.4279 98.2749 15.4682 98.3574 15.4682H103.482C103.564 15.4682 103.632 15.4975 103.691 15.5543C103.748 15.6111 103.777 15.6808 103.777 15.7632V18.1413C103.777 18.2238 103.748 18.2934 103.691 18.3502C103.634 18.407 103.564 18.4363 103.482 18.4363H95.0723C94.9899 18.4363 94.9203 18.4088 94.8635 18.3502C94.8067 18.2934 94.7773 18.2238 94.7773 18.1413V1.56223C94.7773 1.48162 94.8048 1.412 94.8635 1.35337C94.9221 1.29474 94.9899 1.26726 95.0723 1.26726H103.482C103.564 1.26726 103.632 1.29657 103.691 1.35337C103.748 1.41017 103.777 1.47979 103.777 1.56223V3.94036C103.777 4.02281 103.748 4.09243 103.691 4.14923Z" fill="#303030"/>
<path d="M59.6131 45.1025C58.578 44.0472 58.0613 42.6676 58.0613 40.9619V40.1301C58.0613 39.9175 58.1676 39.8113 58.3819 39.8113H60.7491C60.9616 39.8113 61.0697 39.9175 61.0697 40.1301V40.8025C61.0697 41.7827 61.3152 42.5668 61.8044 43.1531C62.2936 43.7394 62.9238 44.0325 63.6915 44.0325C64.4592 44.0325 65.0931 43.7504 65.5933 43.1843C66.0935 42.62 66.3445 41.8779 66.3445 40.9619C66.3445 40.3444 66.2107 39.8003 65.945 39.3312C65.6776 38.8622 65.3258 38.4408 64.8897 38.0689C64.4519 37.6951 63.7428 37.1473 62.7626 36.4218C61.6761 35.612 60.8224 34.9194 60.2049 34.3423C59.5857 33.767 59.0635 33.0745 58.6384 32.2628C58.2116 31.453 57.999 30.504 57.999 29.4175C57.999 27.6898 58.5102 26.3212 59.5344 25.308C60.5567 24.2966 61.8905 23.7891 63.5321 23.7891C65.1737 23.7891 66.6065 24.3333 67.6416 25.4198C68.6749 26.5062 69.1916 27.9353 69.1916 29.7051V30.504C69.1916 30.7165 69.0854 30.8228 68.8728 30.8228H66.5057C66.2913 30.8228 66.1851 30.7165 66.1851 30.504V29.641C66.1851 28.681 65.9396 27.9096 65.4504 27.3234C64.9594 26.7371 64.3199 26.4439 63.5321 26.4439C62.7864 26.4439 62.1782 26.7059 61.7091 27.2281C61.2401 27.7502 61.0056 28.4813 61.0056 29.4193C61.0056 30.2713 61.2401 30.9913 61.7091 31.5776C62.1782 32.1639 63.0851 32.948 64.428 33.9282C65.7069 34.8883 66.6706 35.6651 67.321 36.2624C67.9714 36.8597 68.4716 37.5156 68.8234 38.2283C69.1751 38.9428 69.351 39.7911 69.351 40.7713C69.351 42.5613 68.8288 43.9959 67.7845 45.0732C66.7402 46.1505 65.3753 46.6873 63.6915 46.6873C62.0078 46.6873 60.6483 46.1597 59.615 45.1043L59.6131 45.1025Z" fill="#303030"/>
<path d="M71.936 46.3667V24.1098C71.936 23.8972 72.0423 23.791 72.2567 23.791H74.6861C74.8986 23.791 75.0049 23.8972 75.0049 24.1098V46.3667C75.0049 46.5811 74.8986 46.6873 74.6861 46.6873H72.2567C72.0423 46.6873 71.936 46.5811 71.936 46.3667Z" fill="#303030"/>
<path d="M79.1748 45.1502C78.1195 44.126 77.5918 42.7739 77.5918 41.0883V29.3845C77.5918 27.7008 78.1195 26.3468 79.1748 25.3226C80.2301 24.2985 81.6207 23.7873 83.3484 23.7873C85.0761 23.7873 86.4704 24.2985 87.5367 25.3226C88.603 26.345 89.1362 27.7099 89.1362 29.4157V30.7586C89.1362 30.9712 89.0299 31.0774 88.8174 31.0774H86.3861C86.1736 31.0774 86.0673 30.9712 86.0673 30.7586V29.3515C86.0673 28.4776 85.8163 27.7741 85.3161 27.2409C84.8141 26.7078 84.16 26.4421 83.3502 26.4421C82.5404 26.4421 81.8845 26.7096 81.3843 27.2409C80.8823 27.7741 80.6332 28.4776 80.6332 29.3515V41.1194C80.6332 41.9934 80.8842 42.6969 81.3843 43.2301C81.8845 43.7632 82.5404 44.0289 83.3502 44.0289C84.16 44.0289 84.816 43.7632 85.3161 43.2301C85.8163 42.6969 86.0673 41.9934 86.0673 41.1194V37.6017C86.0673 37.5174 86.0252 37.4735 85.9391 37.4735H83.5096C83.2953 37.4735 83.189 37.3672 83.189 37.1547V35.1723C83.189 34.9597 83.2953 34.8516 83.5096 34.8516H88.8174C89.0299 34.8516 89.1362 34.9579 89.1362 35.1723V41.0883C89.1362 42.772 88.603 44.126 87.5367 45.1502C86.4704 46.1725 85.0743 46.6855 83.3484 46.6855C81.6225 46.6855 80.2301 46.1743 79.1748 45.1502V45.1502Z" fill="#303030"/>
<path d="M101.058 23.802H103.456C103.669 23.802 103.777 23.9119 103.777 24.1281V46.3575C103.777 46.5756 103.67 46.6837 103.456 46.6837H100.706C100.536 46.6837 100.418 46.5976 100.354 46.4217L94.9183 31.4823C94.8963 31.4384 94.8652 31.4219 94.823 31.4329C94.7809 31.4439 94.7589 31.4713 94.7589 31.5153L94.79 46.3575C94.79 46.5756 94.6838 46.6837 94.4712 46.6837H92.0418C91.8275 46.6837 91.7212 46.5756 91.7212 46.3575V24.1299C91.7212 23.9119 91.8275 23.8038 92.0418 23.8038H94.7589C94.9293 23.8038 95.0465 23.8917 95.1107 24.0658L100.58 39.0051C100.6 39.0711 100.633 39.0986 100.675 39.0876C100.717 39.0766 100.739 39.0381 100.739 38.974V24.1299C100.739 23.9119 100.845 23.8038 101.06 23.8038L101.058 23.802Z" fill="#303030"/>
<defs>
<linearGradient id="paint0_linear_48_55" x1="1.1639" y1="25.5158" x2="8.57641" y2="34.5127" gradientUnits="userSpaceOnUse">
<stop stop-color="#E93C3C"/>
<stop offset="1" stop-color="#E77C39"/>
</linearGradient>
<linearGradient id="paint1_linear_48_55" x1="27.8709" y1="0.669313" x2="34.0856" y2="8.21109" gradientUnits="userSpaceOnUse">
<stop stop-color="#E93C3C"/>
<stop offset="1" stop-color="#E77C39"/>
</linearGradient>
<linearGradient id="paint2_linear_48_55" x1="28.3572" y1="39.4597" x2="33.9195" y2="46.207" gradientUnits="userSpaceOnUse">
<stop stop-color="#E93C3C"/>
<stop offset="1" stop-color="#E77C39"/>
</linearGradient>
<linearGradient id="paint3_linear_48_55" x1="41.0488" y1="27.7213" x2="46.045" y2="33.7849" gradientUnits="userSpaceOnUse">
<stop stop-color="#E93C3C"/>
<stop offset="1" stop-color="#E77C39"/>
</linearGradient>
<linearGradient id="paint4_linear_48_55" x1="10.1172" y1="7.06112" x2="39.6169" y2="42.8573" gradientUnits="userSpaceOnUse">
<stop stop-color="#E93C3C"/>
<stop offset="1" stop-color="#E77C39"/>
</linearGradient>
</defs>
</svg>
