<svg width="17" height="11" viewBox="0 0 17 11" fill="none" xmlns="http://www.w3.org/2000/svg">
<path d="M16.2124 4.78921L12.2124 0.789209C12.1192 0.69597 12.0085 0.62201 11.8867 0.571549C11.7649 0.521089 11.6343 0.495117 11.5024 0.495117C11.3706 0.495117 11.24 0.521089 11.1182 0.571549C10.9964 0.62201 10.8857 0.69597 10.7924 0.789209C10.6992 0.882447 10.6252 0.993138 10.5748 1.11496C10.5243 1.23678 10.4984 1.36735 10.4984 1.49921C10.4984 1.63107 10.5243 1.76164 10.5748 1.88346C10.6252 2.00528 10.6992 2.11597 10.7924 2.20921L13.0924 4.49921H1.50244C1.23722 4.49921 0.982871 4.60457 0.795335 4.7921C0.607798 4.97964 0.502441 5.23399 0.502441 5.49921C0.502441 5.76443 0.607798 6.01878 0.795335 6.20632C0.982871 6.39385 1.23722 6.49921 1.50244 6.49921H13.0924L10.7924 8.78921C10.6987 8.88217 10.6243 8.99277 10.5736 9.11463C10.5228 9.23649 10.4966 9.3672 10.4966 9.49921C10.4966 9.63122 10.5228 9.76193 10.5736 9.88379C10.6243 10.0056 10.6987 10.1162 10.7924 10.2092C10.8854 10.3029 10.996 10.3773 11.1179 10.4281C11.2397 10.4789 11.3704 10.505 11.5024 10.505C11.6345 10.505 11.7652 10.4789 11.887 10.4281C12.0089 10.3773 12.1195 10.3029 12.2124 10.2092L16.2124 6.20921C16.3035 6.11411 16.3748 6.00196 16.4224 5.87921C16.5225 5.63575 16.5225 5.36267 16.4224 5.11921C16.3748 4.99646 16.3035 4.88431 16.2124 4.78921Z" fill="white"/>
</svg>
