<svg width="31" height="26" viewBox="0 0 31 26" fill="none" xmlns="http://www.w3.org/2000/svg">
<path d="M30.8316 7.14648C30.18 3.79489 28.3313 1.55921 25.3375 0.502432C22.4045 -0.533772 19.6283 0.0344689 17.085 2.19173C16.6712 2.5427 16.2916 2.94895 15.9247 3.34235C15.783 3.49405 15.6387 3.64961 15.4907 3.80132C15.4236 3.72418 15.3565 3.64576 15.2895 3.56733C15.0693 3.31021 14.8403 3.04409 14.5935 2.79854C14.2114 2.418 13.8242 2.07474 13.4446 1.78162C9.86876 -0.986308 4.89219 -0.457921 2.1173 2.98367C-0.175494 5.82616 -0.608239 9.06976 0.829186 12.6219C1.80982 15.0453 3.47121 16.9711 4.80868 18.3789C7.12804 20.819 9.93076 23.0932 13.3775 25.3302C14.0659 25.7776 14.7795 26 15.4995 26C16.2486 26 17.004 25.7583 17.7442 25.2749C20.1787 23.6859 22.302 22.0622 24.2354 20.3086C26.7218 18.0536 28.3655 16.0918 29.5638 13.9448C30.8557 11.632 31.2707 9.40659 30.8304 7.14391L30.8316 7.14648ZM29.0272 8.88592C29.0007 10.4287 28.4882 11.9431 27.4127 13.6504C26.2638 15.4747 24.7479 17.173 22.4968 19.1593C20.8177 20.6403 18.9248 22.0737 16.713 23.5406C15.9057 24.0754 15.1212 24.0754 14.3164 23.5406C10.671 21.1147 7.95178 18.8597 5.76148 16.444C4.15829 14.6763 3.16374 13.1593 2.53486 11.5227C1.47578 8.76378 2.12742 5.6346 4.15576 3.73575C5.34644 2.62241 6.84334 2.06317 8.36048 2.06317C9.87762 2.06317 11.3062 2.58384 12.5437 3.62904C13.2991 4.26671 13.9507 5.04322 14.5379 6.00486C14.8871 6.57824 15.2591 6.6978 15.5096 6.6978C15.7602 6.6978 16.1322 6.57695 16.4789 6.00486C17.5937 4.17029 18.9412 2.99781 20.5988 2.41928C22.3172 1.8189 24.1962 1.99632 25.7525 2.90396C27.3342 3.82703 28.4503 5.42119 28.8147 7.2789C28.8855 7.63887 28.926 8.01427 28.9665 8.37681C28.9855 8.54651 29.0032 8.71622 29.0247 8.88463L29.0272 8.88592Z" fill="#303030"/>
</svg>
