<svg width="29" height="30" viewBox="0 0 29 30" fill="none" xmlns="http://www.w3.org/2000/svg">
<path d="M28.5476 27.9415C27.2981 26.6722 26.051 25.4029 24.8026 24.1324C23.7056 23.0157 22.6073 21.8977 21.5091 20.7824C21.4712 20.7446 21.4321 20.7132 21.3905 20.6872C21.4347 20.6311 21.47 20.5867 21.5065 20.5424C23.8191 17.7233 24.7774 14.4921 24.355 10.9399C23.9137 7.23513 22.1219 4.2687 19.0275 2.1254C16.3669 0.282139 13.3886 -0.366199 10.1744 0.196042C6.71316 0.802635 3.95927 2.64851 1.9922 5.68278C0.262182 8.35048 -0.345593 11.3287 0.186525 14.5338C0.760254 17.9934 2.53566 20.7798 5.4623 22.8161C7.20619 24.0306 9.19091 24.722 11.3585 24.8733C13.5676 25.0272 15.6507 24.6163 17.551 23.6536C18.1159 23.3666 18.6429 23.034 19.199 22.6804C19.4096 22.5474 19.6252 22.4104 19.8446 22.2747C19.8598 22.2904 19.8761 22.306 19.8913 22.3217L21.9996 24.4676C23.6552 26.153 25.3108 27.8384 26.9752 29.5317C27.0711 29.6295 27.1707 29.73 27.2892 29.8108C27.4733 29.9361 27.6852 30 27.8983 30C28.0433 30 28.1895 29.97 28.3282 29.91C28.6674 29.7626 28.9108 29.4508 28.9801 29.0777C29.0772 28.5585 28.7998 28.1972 28.5476 27.9415ZM21.267 16.8037C19.8471 19.8692 17.4841 21.7608 14.2435 22.4261C10.786 23.137 7.732 22.2069 5.16599 19.6644C3.57846 18.0899 2.6214 16.1253 2.3213 13.8255C2.28095 13.5124 2.25825 13.2006 2.23682 12.8993C2.22799 12.7727 2.21916 12.6514 2.20907 12.5366C2.30743 9.05231 3.6062 6.37808 6.17853 4.36262C8.31078 2.69155 10.7457 2.01713 13.4138 2.3576C16.8247 2.792 19.3806 4.55569 21.011 7.59909C22.6187 10.6007 22.7057 13.6976 21.267 16.805V16.8037Z" fill="#303030"/>
</svg>
