<svg width="33" height="30" viewBox="0 0 33 30" fill="none" xmlns="http://www.w3.org/2000/svg">
<path d="M2.49238 7.26505C3.36617 7.2263 4.22313 7.1863 5.08008 7.15005C8.9338 6.9888 12.7875 6.82879 16.6412 6.66754C18.2412 6.60129 19.8399 6.53379 21.4399 6.46754C22.1519 6.43753 22.6024 6.00502 22.5687 5.38001C22.5364 4.78 22.0432 4.39124 21.3416 4.42124C16.1998 4.63749 11.0581 4.85625 5.91633 5.07375C4.33834 5.14 2.76035 5.20751 1.18235 5.27001C0.22831 5.30751 -0.202759 5.89627 0.0910912 6.78379C1.46067 10.9176 2.83284 15.0502 4.2063 19.1828C4.3008 19.4691 4.38882 19.7591 4.51568 20.0316C4.6762 20.3791 4.97393 20.5704 5.37264 20.6004C5.51115 20.6104 5.65225 20.6129 5.79076 20.6129C10.8846 20.6129 15.9785 20.6154 21.0723 20.6079C21.339 20.6079 21.4658 20.6779 21.5526 20.9279C21.805 21.6629 22.0898 22.3879 22.381 23.1692C22.2037 23.1692 22.0704 23.1692 21.9357 23.1692C16.5623 23.1692 11.1888 23.1692 5.81536 23.1692C5.67555 23.1692 5.53445 23.1654 5.39724 23.1817C4.89886 23.2379 4.55193 23.6092 4.57135 24.0567C4.59076 24.5105 4.95452 24.858 5.45419 24.8805C5.75322 24.8942 6.05484 24.883 6.43413 24.883C5.80759 25.6292 5.53834 26.4405 5.66649 27.3368C5.79594 28.2443 6.26973 28.9756 7.06455 29.4806C8.33056 30.2843 9.88785 30.1468 11.0063 29.1268C11.6147 28.5718 11.9435 27.8693 11.9772 27.0555C12.0108 26.258 11.7364 25.5555 11.1953 24.9042H18.0742C17.4179 25.698 17.1526 26.5643 17.348 27.5193C17.506 28.2868 17.9228 28.9206 18.5843 29.3893C19.7558 30.2168 21.3441 30.2356 22.5597 29.2131C23.216 28.6618 23.5694 27.9505 23.6276 27.1218C23.6833 26.308 23.4153 25.5742 22.8263 24.8867C23.0943 24.8867 23.2924 24.888 23.4904 24.8867C24.3034 24.878 24.6904 24.3567 24.4212 23.6192C24.0975 22.7304 23.7636 21.8441 23.4348 20.9566C23.3998 20.8616 23.3674 20.7641 23.3157 20.6154C23.4801 20.6154 23.6134 20.6179 23.748 20.6154C24.3616 20.6016 24.7629 20.2829 24.8729 19.7066C25.4749 16.5578 26.0742 13.4077 26.6736 10.2589C27.0775 8.13882 27.4839 6.01877 27.8788 3.89748C27.9163 3.69622 28.0017 3.60122 28.1959 3.52997C29.5474 3.0262 30.8949 2.51369 32.2399 1.99743C32.8108 1.77493 33.093 1.29991 32.9726 0.798653C32.8173 0.156138 32.1687 -0.165119 31.4891 0.0848866C30.5571 0.427395 29.6315 0.787403 28.7021 1.13866C28.0535 1.38492 27.4076 1.63867 26.7538 1.87368C26.2736 2.04618 26.0082 2.36619 25.9176 2.8487C25.3765 5.72377 24.8315 8.59883 24.2852 11.4727C23.8542 13.7465 23.4192 16.019 22.9933 18.2928C22.9532 18.5066 22.8678 18.5753 22.6373 18.5753C17.2639 18.5691 11.8904 18.5691 6.51698 18.5728C6.32539 18.5728 6.21018 18.5428 6.14157 18.3353C4.94416 14.7027 3.73769 11.0739 2.53381 7.44381C2.51827 7.39631 2.51051 7.34506 2.49109 7.26505H2.49238ZM19.0606 26.9718C19.0399 26.2092 19.6445 25.588 20.4225 25.573C21.2147 25.558 21.8451 26.138 21.8645 26.8968C21.8827 27.653 21.2716 28.268 20.4846 28.2843C19.7234 28.3005 19.0814 27.7093 19.0606 26.9718ZM7.39853 26.9155C7.405 26.1655 8.04319 25.5655 8.82765 25.573C9.58752 25.5792 10.2179 26.1905 10.2218 26.923C10.2257 27.6668 9.57975 28.2868 8.80435 28.2855C8.02765 28.283 7.39205 27.6643 7.39853 26.9168V26.9155Z" fill="#303030"/>
</svg>
