<svg width="30" height="30" viewBox="0 0 30 30" fill="none" xmlns="http://www.w3.org/2000/svg">
<path d="M29.996 28.7274L29.9908 28.6048C29.9582 27.9072 29.9256 27.1849 29.7952 26.4912C28.8352 21.3773 25.9826 17.626 21.3157 15.3403C20.91 15.1421 20.4822 14.9778 20.0674 14.8188C19.9096 14.7588 19.7518 14.6975 19.5939 14.6362C21.5061 13.301 22.74 11.2174 22.9865 8.89908C23.2396 6.52469 22.44 4.17768 20.7952 2.45914C19.2809 0.877521 17.2265 0.00391168 15.0105 0H14.9974C12.7892 0 10.7401 0.864482 9.22572 2.43698C7.5679 4.15812 6.76312 6.51034 7.01616 8.89126C7.26399 11.22 8.50703 13.3128 10.4322 14.6519C10.3827 14.6688 10.3344 14.6858 10.2875 14.7027C10.1009 14.7666 9.92615 14.8279 9.75267 14.8931L9.6692 14.9244C9.44746 15.0078 9.2179 15.0939 9.00007 15.1995C3.29227 17.9377 0.264889 22.5313 0.00141202 28.8513C-0.0129357 29.1825 0.0822873 29.4654 0.276634 29.6688C0.481416 29.8826 0.782718 29.9974 1.14793 29.9987C1.38532 29.9987 1.62141 30 1.8588 30C2.04141 30 2.22401 30 2.40662 30H28.7595C29.203 30 29.5187 29.8944 29.7247 29.6779C29.9282 29.4654 30.0169 29.1551 29.9974 28.73L29.996 28.7274ZM27.8061 27.8642H2.15228C2.5788 23.7961 4.38661 20.6367 7.52616 18.4697C11.9531 15.4146 16.6005 15.1695 21.3404 17.7382C25.6082 20.0513 27.6587 24.4767 27.8061 27.8642ZM9.08746 8.07371C9.08224 6.496 9.68876 5.00435 10.7974 3.87517C11.9061 2.746 13.3735 2.12144 14.9309 2.11752H14.9479C16.5574 2.11752 18.0587 2.73035 19.1778 3.84649C20.2957 4.96001 20.9126 6.45688 20.9126 8.06067C20.9139 11.2969 18.2583 13.9347 14.9922 13.9412H14.9818C11.7418 13.9412 9.0992 11.3126 9.08746 8.07502V8.07371Z" fill="#303030"/>
</svg>
